<mxfile host="app.diagrams.net" agent="Mozilla/5.0 (Windows NT 10.0; Win64; x64) AppleWebKit/537.36 (KHTML, like Gecko) Chrome/138.0.0.0 Safari/537.36" version="28.0.7" pages="9">
  <diagram name="COMPLETO v2" id="IHQhvyUtYEcRs8zsTrsc">
    <mxGraphModel dx="2535" dy="703" grid="1" gridSize="10" guides="1" tooltips="1" connect="1" arrows="1" fold="1" page="1" pageScale="1" pageWidth="827" pageHeight="1169" math="0" shadow="0">
      <root>
        <mxCell id="Lu89DYW8qhDD5Kn7B7-p-0" />
        <mxCell id="Lu89DYW8qhDD5Kn7B7-p-1" parent="Lu89DYW8qhDD5Kn7B7-p-0" />
        <mxCell id="WMeuJgTBO1_McjWaMNvh-0" value="SOLAR VENDA&lt;div&gt;MÓVEL E RESIDENCIAL&lt;/div&gt;" style="rounded=1;whiteSpace=wrap;html=1;" parent="Lu89DYW8qhDD5Kn7B7-p-1" vertex="1">
          <mxGeometry x="-750" y="90" width="120" height="60" as="geometry" />
        </mxCell>
        <mxCell id="WMeuJgTBO1_McjWaMNvh-1" value="&lt;b&gt;PF JORNADA BILLING CONVERGENTE&lt;/b&gt;" style="text;html=1;align=left;verticalAlign=middle;whiteSpace=wrap;rounded=0;" parent="Lu89DYW8qhDD5Kn7B7-p-1" vertex="1">
          <mxGeometry x="-588" y="50" width="270" height="30" as="geometry" />
        </mxCell>
        <mxCell id="WMeuJgTBO1_McjWaMNvh-2" value="OM" style="rounded=1;whiteSpace=wrap;html=1;verticalAlign=top;" parent="Lu89DYW8qhDD5Kn7B7-p-1" vertex="1">
          <mxGeometry x="-540" y="120" width="120" height="320" as="geometry" />
        </mxCell>
        <mxCell id="WMeuJgTBO1_McjWaMNvh-3" value="NETSMS" style="shape=cylinder3;whiteSpace=wrap;html=1;boundedLbl=1;backgroundOutline=1;size=15;verticalAlign=top;" parent="Lu89DYW8qhDD5Kn7B7-p-1" vertex="1">
          <mxGeometry x="-70" y="120" width="220" height="360" as="geometry" />
        </mxCell>
        <mxCell id="WMeuJgTBO1_McjWaMNvh-4" value="&amp;lt;MS&amp;gt;&lt;br&gt;PROPOSAL/CONFIRMATION" style="rounded=1;whiteSpace=wrap;html=1;fillColor=#fff2cc;strokeColor=#d6b656;" parent="Lu89DYW8qhDD5Kn7B7-p-1" vertex="1">
          <mxGeometry x="-318" y="70" width="176" height="60" as="geometry" />
        </mxCell>
        <mxCell id="WMeuJgTBO1_McjWaMNvh-5" value="" style="endArrow=classic;html=1;rounded=0;entryX=0;entryY=0.5;entryDx=0;entryDy=0;exitX=1;exitY=0.5;exitDx=0;exitDy=0;" parent="Lu89DYW8qhDD5Kn7B7-p-1" source="WMeuJgTBO1_McjWaMNvh-4" target="WMeuJgTBO1_McjWaMNvh-10" edge="1">
          <mxGeometry width="50" height="50" relative="1" as="geometry">
            <mxPoint x="-150" y="270" as="sourcePoint" />
            <mxPoint x="-100" y="220" as="targetPoint" />
          </mxGeometry>
        </mxCell>
        <mxCell id="WMeuJgTBO1_McjWaMNvh-6" value="" style="endArrow=classic;html=1;rounded=0;entryX=0;entryY=0.5;entryDx=0;entryDy=0;exitX=1;exitY=0.25;exitDx=0;exitDy=0;" parent="Lu89DYW8qhDD5Kn7B7-p-1" source="WMeuJgTBO1_McjWaMNvh-22" target="WMeuJgTBO1_McjWaMNvh-4" edge="1">
          <mxGeometry width="50" height="50" relative="1" as="geometry">
            <mxPoint x="-310" y="260" as="sourcePoint" />
            <mxPoint x="-260" y="210" as="targetPoint" />
            <Array as="points">
              <mxPoint x="-370" y="130" />
            </Array>
          </mxGeometry>
        </mxCell>
        <mxCell id="WMeuJgTBO1_McjWaMNvh-7" value="" style="endArrow=classic;html=1;rounded=0;entryX=0.5;entryY=0;entryDx=0;entryDy=0;exitX=1;exitY=0.5;exitDx=0;exitDy=0;" parent="Lu89DYW8qhDD5Kn7B7-p-1" source="WMeuJgTBO1_McjWaMNvh-0" target="WMeuJgTBO1_McjWaMNvh-22" edge="1">
          <mxGeometry width="50" height="50" relative="1" as="geometry">
            <mxPoint x="-590" y="360" as="sourcePoint" />
            <mxPoint x="-540" y="310" as="targetPoint" />
          </mxGeometry>
        </mxCell>
        <mxCell id="WMeuJgTBO1_McjWaMNvh-8" value="Prospect,&amp;nbsp;&lt;div&gt;troca titularidade (venda prospect)&lt;/div&gt;" style="edgeLabel;html=1;align=center;verticalAlign=middle;resizable=0;points=[];" parent="WMeuJgTBO1_McjWaMNvh-7" vertex="1" connectable="0">
          <mxGeometry x="-0.4156" y="2" relative="1" as="geometry">
            <mxPoint x="46" y="-30" as="offset" />
          </mxGeometry>
        </mxCell>
        <mxCell id="WMeuJgTBO1_McjWaMNvh-9" value="CONTRATO" style="swimlane;fontStyle=0;childLayout=stackLayout;horizontal=1;startSize=30;horizontalStack=0;resizeParent=1;resizeParentMax=0;resizeLast=0;collapsible=1;marginBottom=0;whiteSpace=wrap;html=1;" parent="Lu89DYW8qhDD5Kn7B7-p-1" vertex="1">
          <mxGeometry x="-40" y="190" width="140" height="90" as="geometry" />
        </mxCell>
        <mxCell id="WMeuJgTBO1_McjWaMNvh-10" value="NUM CONTRATO" style="text;strokeColor=none;fillColor=none;align=left;verticalAlign=middle;spacingLeft=4;spacingRight=4;overflow=hidden;points=[[0,0.5],[1,0.5]];portConstraint=eastwest;rotatable=0;whiteSpace=wrap;html=1;" parent="WMeuJgTBO1_McjWaMNvh-9" vertex="1">
          <mxGeometry y="30" width="140" height="30" as="geometry" />
        </mxCell>
        <mxCell id="WMeuJgTBO1_McjWaMNvh-11" value="&lt;font style=&quot;font-size: 11px;&quot;&gt;FLAG BILLING-M = TRUE&lt;/font&gt;" style="text;strokeColor=none;fillColor=none;align=left;verticalAlign=middle;spacingLeft=4;spacingRight=4;overflow=hidden;points=[[0,0.5],[1,0.5]];portConstraint=eastwest;rotatable=0;whiteSpace=wrap;html=1;" parent="WMeuJgTBO1_McjWaMNvh-9" vertex="1">
          <mxGeometry y="60" width="140" height="30" as="geometry" />
        </mxCell>
        <mxCell id="WMeuJgTBO1_McjWaMNvh-12" value="" style="edgeStyle=orthogonalEdgeStyle;rounded=0;orthogonalLoop=1;jettySize=auto;html=1;" parent="Lu89DYW8qhDD5Kn7B7-p-1" source="WMeuJgTBO1_McjWaMNvh-13" target="WMeuJgTBO1_McjWaMNvh-97" edge="1">
          <mxGeometry relative="1" as="geometry" />
        </mxCell>
        <mxCell id="WMeuJgTBO1_McjWaMNvh-13" value="MOBILE" style="rounded=1;whiteSpace=wrap;html=1;" parent="Lu89DYW8qhDD5Kn7B7-p-1" vertex="1">
          <mxGeometry x="-560" y="575" width="120" height="60" as="geometry" />
        </mxCell>
        <mxCell id="WMeuJgTBO1_McjWaMNvh-14" value="" style="endArrow=classic;html=1;rounded=0;entryX=0.5;entryY=0;entryDx=0;entryDy=0;exitX=0.514;exitY=1;exitDx=0;exitDy=0;exitPerimeter=0;" parent="Lu89DYW8qhDD5Kn7B7-p-1" source="WMeuJgTBO1_McjWaMNvh-11" target="WMeuJgTBO1_McjWaMNvh-16" edge="1">
          <mxGeometry width="50" height="50" relative="1" as="geometry">
            <mxPoint x="-170" y="400" as="sourcePoint" />
            <mxPoint x="-120" y="350" as="targetPoint" />
          </mxGeometry>
        </mxCell>
        <mxCell id="WMeuJgTBO1_McjWaMNvh-15" value="" style="endArrow=classic;html=1;rounded=0;entryX=0.5;entryY=0;entryDx=0;entryDy=0;exitX=0.5;exitY=1;exitDx=0;exitDy=0;" parent="Lu89DYW8qhDD5Kn7B7-p-1" source="WMeuJgTBO1_McjWaMNvh-23" target="WMeuJgTBO1_McjWaMNvh-13" edge="1">
          <mxGeometry width="50" height="50" relative="1" as="geometry">
            <mxPoint x="-280" y="446.5" as="sourcePoint" />
            <mxPoint x="-220" y="430" as="targetPoint" />
          </mxGeometry>
        </mxCell>
        <mxCell id="WMeuJgTBO1_McjWaMNvh-16" value="SOLIC" style="swimlane;fontStyle=0;childLayout=stackLayout;horizontal=1;startSize=30;horizontalStack=0;resizeParent=1;resizeParentMax=0;resizeLast=0;collapsible=1;marginBottom=0;whiteSpace=wrap;html=1;" parent="Lu89DYW8qhDD5Kn7B7-p-1" vertex="1">
          <mxGeometry x="-20" y="310" width="140" height="60" as="geometry" />
        </mxCell>
        <mxCell id="WMeuJgTBO1_McjWaMNvh-17" value="OS" style="swimlane;fontStyle=0;childLayout=stackLayout;horizontal=1;startSize=30;horizontalStack=0;resizeParent=1;resizeParentMax=0;resizeLast=0;collapsible=1;marginBottom=0;whiteSpace=wrap;html=1;" parent="Lu89DYW8qhDD5Kn7B7-p-1" vertex="1">
          <mxGeometry y="390" width="140" height="60" as="geometry" />
        </mxCell>
        <mxCell id="WMeuJgTBO1_McjWaMNvh-18" value="" style="endArrow=classic;html=1;rounded=0;entryX=0.5;entryY=0;entryDx=0;entryDy=0;exitX=0.5;exitY=1;exitDx=0;exitDy=0;" parent="Lu89DYW8qhDD5Kn7B7-p-1" source="WMeuJgTBO1_McjWaMNvh-16" target="WMeuJgTBO1_McjWaMNvh-17" edge="1">
          <mxGeometry width="50" height="50" relative="1" as="geometry">
            <mxPoint x="90" y="320" as="sourcePoint" />
            <mxPoint x="108" y="350" as="targetPoint" />
          </mxGeometry>
        </mxCell>
        <mxCell id="WMeuJgTBO1_McjWaMNvh-19" value="" style="endArrow=classic;html=1;rounded=0;exitX=0;exitY=0.75;exitDx=0;exitDy=0;entryX=1;entryY=0.5;entryDx=0;entryDy=0;" parent="Lu89DYW8qhDD5Kn7B7-p-1" source="WMeuJgTBO1_McjWaMNvh-16" target="WMeuJgTBO1_McjWaMNvh-21" edge="1">
          <mxGeometry width="50" height="50" relative="1" as="geometry">
            <mxPoint x="-30" y="540" as="sourcePoint" />
            <mxPoint x="20" y="490" as="targetPoint" />
          </mxGeometry>
        </mxCell>
        <mxCell id="WMeuJgTBO1_McjWaMNvh-20" value="OS finalizada/instalação concluida com sucesso" style="text;html=1;align=center;verticalAlign=middle;whiteSpace=wrap;rounded=0;" parent="Lu89DYW8qhDD5Kn7B7-p-1" vertex="1">
          <mxGeometry x="-313.5" y="567" width="168" height="40" as="geometry" />
        </mxCell>
        <mxCell id="WMeuJgTBO1_McjWaMNvh-21" value="&amp;lt;MS&amp;gt;&lt;br&gt;CALLBACK SOLAR" style="rounded=1;whiteSpace=wrap;html=1;fillColor=#f8cecc;strokeColor=#b85450;" parent="Lu89DYW8qhDD5Kn7B7-p-1" vertex="1">
          <mxGeometry x="-289.5" y="510" width="120" height="60" as="geometry" />
        </mxCell>
        <mxCell id="WMeuJgTBO1_McjWaMNvh-22" value="PROPOSTA" style="rounded=0;whiteSpace=wrap;html=1;" parent="Lu89DYW8qhDD5Kn7B7-p-1" vertex="1">
          <mxGeometry x="-525" y="160" width="90" height="40" as="geometry" />
        </mxCell>
        <mxCell id="WMeuJgTBO1_McjWaMNvh-23" value="CONTRATO MOBILE" style="rounded=0;whiteSpace=wrap;html=1;" parent="Lu89DYW8qhDD5Kn7B7-p-1" vertex="1">
          <mxGeometry x="-525" y="380" width="90" height="40" as="geometry" />
        </mxCell>
        <mxCell id="WMeuJgTBO1_McjWaMNvh-24" value="" style="endArrow=classic;html=1;rounded=0;entryX=1;entryY=0.5;entryDx=0;entryDy=0;exitX=0;exitY=0.5;exitDx=0;exitDy=0;" parent="Lu89DYW8qhDD5Kn7B7-p-1" source="WMeuJgTBO1_McjWaMNvh-21" target="WMeuJgTBO1_McjWaMNvh-23" edge="1">
          <mxGeometry width="50" height="50" relative="1" as="geometry">
            <mxPoint x="-400" y="380" as="sourcePoint" />
            <mxPoint x="-350" y="330" as="targetPoint" />
          </mxGeometry>
        </mxCell>
        <mxCell id="WMeuJgTBO1_McjWaMNvh-25" value="CONCILIAÇÃO FATURAMENTO NETSMS X ENG X MOBILE" style="rounded=1;whiteSpace=wrap;html=1;" parent="Lu89DYW8qhDD5Kn7B7-p-1" vertex="1">
          <mxGeometry x="-180" y="650" width="120" height="60" as="geometry" />
        </mxCell>
        <mxCell id="WMeuJgTBO1_McjWaMNvh-26" value="" style="endArrow=none;dashed=1;html=1;dashPattern=1 3;strokeWidth=2;rounded=0;exitX=0;exitY=0.5;exitDx=0;exitDy=0;entryX=1;entryY=0.5;entryDx=0;entryDy=0;" parent="Lu89DYW8qhDD5Kn7B7-p-1" source="WMeuJgTBO1_McjWaMNvh-25" target="WMeuJgTBO1_McjWaMNvh-69" edge="1">
          <mxGeometry width="50" height="50" relative="1" as="geometry">
            <mxPoint x="-560" y="460" as="sourcePoint" />
            <mxPoint x="-510" y="410" as="targetPoint" />
          </mxGeometry>
        </mxCell>
        <mxCell id="WMeuJgTBO1_McjWaMNvh-27" value="" style="endArrow=none;dashed=1;html=1;dashPattern=1 3;strokeWidth=2;rounded=0;entryX=0;entryY=1;entryDx=0;entryDy=-15;entryPerimeter=0;exitX=0.5;exitY=0;exitDx=0;exitDy=0;" parent="Lu89DYW8qhDD5Kn7B7-p-1" source="WMeuJgTBO1_McjWaMNvh-25" target="WMeuJgTBO1_McjWaMNvh-3" edge="1">
          <mxGeometry width="50" height="50" relative="1" as="geometry">
            <mxPoint x="-250" y="500" as="sourcePoint" />
            <mxPoint x="-80" y="440" as="targetPoint" />
          </mxGeometry>
        </mxCell>
        <mxCell id="WMeuJgTBO1_McjWaMNvh-28" value="SOLAR ATENDIMENTO&lt;div&gt;MÓVEL E RESIDENCIAL&lt;/div&gt;" style="rounded=1;whiteSpace=wrap;html=1;" parent="Lu89DYW8qhDD5Kn7B7-p-1" vertex="1">
          <mxGeometry x="-750" y="240" width="120" height="60" as="geometry" />
        </mxCell>
        <mxCell id="WMeuJgTBO1_McjWaMNvh-29" value="" style="endArrow=classic;html=1;rounded=0;exitX=0.25;exitY=1;exitDx=0;exitDy=0;entryX=0;entryY=0.25;entryDx=0;entryDy=0;" parent="Lu89DYW8qhDD5Kn7B7-p-1" source="WMeuJgTBO1_McjWaMNvh-0" edge="1">
          <mxGeometry width="50" height="50" relative="1" as="geometry">
            <mxPoint x="-630" y="152.5" as="sourcePoint" />
            <mxPoint x="-525" y="187.5" as="targetPoint" />
          </mxGeometry>
        </mxCell>
        <mxCell id="WMeuJgTBO1_McjWaMNvh-30" value="Base (mudança pcte,&amp;nbsp;&lt;div&gt;adesão,&amp;nbsp;&lt;span style=&quot;background-color: light-dark(#ffffff, var(--ge-dark-color, #121212)); color: light-dark(rgb(0, 0, 0), rgb(255, 255, 255));&quot;&gt;cancelamento,&amp;nbsp;&lt;/span&gt;&lt;div&gt;suspensão)&lt;/div&gt;&lt;/div&gt;" style="edgeLabel;html=1;align=center;verticalAlign=middle;resizable=0;points=[];" parent="WMeuJgTBO1_McjWaMNvh-29" vertex="1" connectable="0">
          <mxGeometry x="0.2265" y="1" relative="1" as="geometry">
            <mxPoint x="-95" y="39" as="offset" />
          </mxGeometry>
        </mxCell>
        <mxCell id="WMeuJgTBO1_McjWaMNvh-31" value="" style="endArrow=classic;html=1;rounded=0;exitX=1;exitY=0.25;exitDx=0;exitDy=0;entryX=0;entryY=0;entryDx=0;entryDy=0;" parent="Lu89DYW8qhDD5Kn7B7-p-1" source="WMeuJgTBO1_McjWaMNvh-28" target="WMeuJgTBO1_McjWaMNvh-35" edge="1">
          <mxGeometry width="50" height="50" relative="1" as="geometry">
            <mxPoint x="-560" y="300" as="sourcePoint" />
            <mxPoint x="-450" y="250" as="targetPoint" />
          </mxGeometry>
        </mxCell>
        <mxCell id="WMeuJgTBO1_McjWaMNvh-32" value="Técnico: VT,&amp;nbsp;&lt;div&gt;Abertura OS&lt;/div&gt;" style="edgeLabel;html=1;align=center;verticalAlign=middle;resizable=0;points=[];" parent="WMeuJgTBO1_McjWaMNvh-31" vertex="1" connectable="0">
          <mxGeometry x="-0.0872" y="1" relative="1" as="geometry">
            <mxPoint x="2" y="-11" as="offset" />
          </mxGeometry>
        </mxCell>
        <mxCell id="WMeuJgTBO1_McjWaMNvh-33" value="" style="endArrow=classic;html=1;rounded=0;entryX=0;entryY=1;entryDx=0;entryDy=0;exitX=1;exitY=1;exitDx=0;exitDy=0;" parent="Lu89DYW8qhDD5Kn7B7-p-1" source="WMeuJgTBO1_McjWaMNvh-28" target="WMeuJgTBO1_McjWaMNvh-35" edge="1">
          <mxGeometry width="50" height="50" relative="1" as="geometry">
            <mxPoint x="-580" y="315" as="sourcePoint" />
            <mxPoint x="-530" y="265" as="targetPoint" />
          </mxGeometry>
        </mxCell>
        <mxCell id="WMeuJgTBO1_McjWaMNvh-34" value="Financeiro: 2a via,&amp;nbsp;&lt;div&gt;forma de pgto,&amp;nbsp;&lt;div&gt;endereço fatura,&amp;nbsp;&lt;/div&gt;&lt;div&gt;faturamento móvel,&amp;nbsp;&lt;/div&gt;&lt;/div&gt;" style="edgeLabel;html=1;align=center;verticalAlign=middle;resizable=0;points=[];" parent="WMeuJgTBO1_McjWaMNvh-33" vertex="1" connectable="0">
          <mxGeometry x="-0.6552" y="-2" relative="1" as="geometry">
            <mxPoint x="2" y="36" as="offset" />
          </mxGeometry>
        </mxCell>
        <mxCell id="WMeuJgTBO1_McjWaMNvh-35" value="ASSINANTE" style="rounded=0;whiteSpace=wrap;html=1;" parent="Lu89DYW8qhDD5Kn7B7-p-1" vertex="1">
          <mxGeometry x="-525" y="270" width="90" height="40" as="geometry" />
        </mxCell>
        <mxCell id="WMeuJgTBO1_McjWaMNvh-40" value="Após migração, se houver valor pendente de pro rata, última fatura será gerada no residencial para o cliente (em paralelo ao faturamento no Mobile)." style="text;html=1;align=center;verticalAlign=middle;whiteSpace=wrap;rounded=0;" parent="Lu89DYW8qhDD5Kn7B7-p-1" vertex="1">
          <mxGeometry x="-60" y="643" width="200" height="67" as="geometry" />
        </mxCell>
        <mxCell id="WMeuJgTBO1_McjWaMNvh-41" value="" style="endArrow=classic;html=1;rounded=0;exitX=1;exitY=0.25;exitDx=0;exitDy=0;entryX=0.024;entryY=0.76;entryDx=0;entryDy=0;fillColor=#f8cecc;strokeColor=#b85450;strokeWidth=3;entryPerimeter=0;" parent="Lu89DYW8qhDD5Kn7B7-p-1" source="WMeuJgTBO1_McjWaMNvh-21" target="WMeuJgTBO1_McjWaMNvh-11" edge="1">
          <mxGeometry width="50" height="50" relative="1" as="geometry">
            <mxPoint x="-180" y="325" as="sourcePoint" />
            <mxPoint x="-30" y="275" as="targetPoint" />
          </mxGeometry>
        </mxCell>
        <mxCell id="WMeuJgTBO1_McjWaMNvh-42" style="edgeStyle=orthogonalEdgeStyle;rounded=0;orthogonalLoop=1;jettySize=auto;html=1;exitX=0.5;exitY=1;exitDx=0;exitDy=0;" parent="Lu89DYW8qhDD5Kn7B7-p-1" source="WMeuJgTBO1_McjWaMNvh-40" target="WMeuJgTBO1_McjWaMNvh-40" edge="1">
          <mxGeometry relative="1" as="geometry" />
        </mxCell>
        <mxCell id="WMeuJgTBO1_McjWaMNvh-43" value="Atendimento Não Solar Minhas, URA, Whatsapp (troca nr telefone fixo, etc)" style="rounded=1;whiteSpace=wrap;html=1;" parent="Lu89DYW8qhDD5Kn7B7-p-1" vertex="1">
          <mxGeometry x="580" y="215" width="120" height="60" as="geometry" />
        </mxCell>
        <mxCell id="WMeuJgTBO1_McjWaMNvh-44" value="ADESÃO STW" style="rounded=1;whiteSpace=wrap;html=1;" parent="Lu89DYW8qhDD5Kn7B7-p-1" vertex="1">
          <mxGeometry x="197" y="124" width="176" height="60" as="geometry" />
        </mxCell>
        <mxCell id="WMeuJgTBO1_McjWaMNvh-45" value="&amp;lt;MS&amp;gt;&lt;br&gt;APROVISIONAMENTO VT PAGA" style="rounded=1;whiteSpace=wrap;html=1;fillColor=#f8cecc;strokeColor=#b85450;" parent="Lu89DYW8qhDD5Kn7B7-p-1" vertex="1">
          <mxGeometry x="253" y="575" width="120" height="60" as="geometry" />
        </mxCell>
        <mxCell id="WMeuJgTBO1_McjWaMNvh-46" value="Venda não Solar (STB,URA, etc)" style="rounded=1;whiteSpace=wrap;html=1;" parent="Lu89DYW8qhDD5Kn7B7-p-1" vertex="1">
          <mxGeometry x="580" y="130" width="120" height="60" as="geometry" />
        </mxCell>
        <mxCell id="WMeuJgTBO1_McjWaMNvh-47" value="APIGEE" style="rounded=1;whiteSpace=wrap;html=1;verticalAlign=top;" parent="Lu89DYW8qhDD5Kn7B7-p-1" vertex="1">
          <mxGeometry x="400" y="125" width="120" height="165" as="geometry" />
        </mxCell>
        <mxCell id="WMeuJgTBO1_McjWaMNvh-48" value="PROPOSTA" style="rounded=0;whiteSpace=wrap;html=1;" parent="Lu89DYW8qhDD5Kn7B7-p-1" vertex="1">
          <mxGeometry x="415" y="165" width="90" height="40" as="geometry" />
        </mxCell>
        <mxCell id="WMeuJgTBO1_McjWaMNvh-49" value="ASSINANTE" style="rounded=0;whiteSpace=wrap;html=1;" parent="Lu89DYW8qhDD5Kn7B7-p-1" vertex="1">
          <mxGeometry x="415" y="225" width="90" height="40" as="geometry" />
        </mxCell>
        <mxCell id="WMeuJgTBO1_McjWaMNvh-50" value="" style="endArrow=classic;html=1;rounded=0;exitX=0;exitY=0.5;exitDx=0;exitDy=0;entryX=1;entryY=0.5;entryDx=0;entryDy=0;" parent="Lu89DYW8qhDD5Kn7B7-p-1" source="WMeuJgTBO1_McjWaMNvh-43" target="WMeuJgTBO1_McjWaMNvh-49" edge="1">
          <mxGeometry width="50" height="50" relative="1" as="geometry">
            <mxPoint x="400" y="280" as="sourcePoint" />
            <mxPoint x="450" y="230" as="targetPoint" />
          </mxGeometry>
        </mxCell>
        <mxCell id="WMeuJgTBO1_McjWaMNvh-51" value="OS VT" style="edgeLabel;html=1;align=center;verticalAlign=middle;resizable=0;points=[];" parent="WMeuJgTBO1_McjWaMNvh-50" vertex="1" connectable="0">
          <mxGeometry x="-0.1733" relative="1" as="geometry">
            <mxPoint as="offset" />
          </mxGeometry>
        </mxCell>
        <mxCell id="WMeuJgTBO1_McjWaMNvh-52" value="" style="endArrow=classic;html=1;rounded=0;exitX=0;exitY=0.25;exitDx=0;exitDy=0;entryX=1;entryY=0.25;entryDx=0;entryDy=0;" parent="Lu89DYW8qhDD5Kn7B7-p-1" source="WMeuJgTBO1_McjWaMNvh-46" target="WMeuJgTBO1_McjWaMNvh-48" edge="1">
          <mxGeometry width="50" height="50" relative="1" as="geometry">
            <mxPoint x="615" y="240" as="sourcePoint" />
            <mxPoint x="540" y="240" as="targetPoint" />
          </mxGeometry>
        </mxCell>
        <mxCell id="WMeuJgTBO1_McjWaMNvh-53" value="Adesão" style="edgeLabel;html=1;align=center;verticalAlign=middle;resizable=0;points=[];" parent="WMeuJgTBO1_McjWaMNvh-52" vertex="1" connectable="0">
          <mxGeometry x="-0.2368" y="2" relative="1" as="geometry">
            <mxPoint as="offset" />
          </mxGeometry>
        </mxCell>
        <mxCell id="WMeuJgTBO1_McjWaMNvh-54" value="" style="endArrow=classic;html=1;rounded=0;entryX=1;entryY=0.5;entryDx=0;entryDy=0;exitX=0;exitY=0.5;exitDx=0;exitDy=0;" parent="Lu89DYW8qhDD5Kn7B7-p-1" source="WMeuJgTBO1_McjWaMNvh-44" target="WMeuJgTBO1_McjWaMNvh-10" edge="1">
          <mxGeometry width="50" height="50" relative="1" as="geometry">
            <mxPoint x="190" y="280" as="sourcePoint" />
            <mxPoint x="240" y="230" as="targetPoint" />
          </mxGeometry>
        </mxCell>
        <mxCell id="WMeuJgTBO1_McjWaMNvh-55" value="" style="endArrow=classic;html=1;rounded=0;entryX=1;entryY=0.5;entryDx=0;entryDy=0;exitX=0;exitY=0.5;exitDx=0;exitDy=0;" parent="Lu89DYW8qhDD5Kn7B7-p-1" source="WMeuJgTBO1_McjWaMNvh-48" target="WMeuJgTBO1_McjWaMNvh-44" edge="1">
          <mxGeometry width="50" height="50" relative="1" as="geometry">
            <mxPoint x="320" y="280" as="sourcePoint" />
            <mxPoint x="370" y="230" as="targetPoint" />
          </mxGeometry>
        </mxCell>
        <mxCell id="WMeuJgTBO1_McjWaMNvh-56" value="&amp;lt;MS&amp;gt;&lt;br&gt;ATENDIMENTO" style="rounded=1;whiteSpace=wrap;html=1;fillColor=#fff2cc;strokeColor=#d6b656;" parent="Lu89DYW8qhDD5Kn7B7-p-1" vertex="1">
          <mxGeometry x="197" y="200" width="176" height="60" as="geometry" />
        </mxCell>
        <mxCell id="WMeuJgTBO1_McjWaMNvh-57" value="" style="endArrow=classic;html=1;rounded=0;entryX=1;entryY=0.5;entryDx=0;entryDy=0;exitX=0;exitY=0.5;exitDx=0;exitDy=0;" parent="Lu89DYW8qhDD5Kn7B7-p-1" source="WMeuJgTBO1_McjWaMNvh-49" target="WMeuJgTBO1_McjWaMNvh-56" edge="1">
          <mxGeometry width="50" height="50" relative="1" as="geometry">
            <mxPoint x="462" y="200" as="sourcePoint" />
            <mxPoint x="420" y="205" as="targetPoint" />
          </mxGeometry>
        </mxCell>
        <mxCell id="WMeuJgTBO1_McjWaMNvh-58" value="" style="endArrow=classic;html=1;rounded=0;exitX=1;exitY=0.75;exitDx=0;exitDy=0;entryX=0.25;entryY=0;entryDx=0;entryDy=0;" parent="Lu89DYW8qhDD5Kn7B7-p-1" source="WMeuJgTBO1_McjWaMNvh-17" target="WMeuJgTBO1_McjWaMNvh-45" edge="1">
          <mxGeometry width="50" height="50" relative="1" as="geometry">
            <mxPoint x="110" y="420" as="sourcePoint" />
            <mxPoint x="-70" y="410" as="targetPoint" />
          </mxGeometry>
        </mxCell>
        <mxCell id="WMeuJgTBO1_McjWaMNvh-59" value="Quando venda/atendimento&amp;nbsp;&lt;div&gt;iniciado fora do Solar, JOBs&lt;/div&gt;" style="edgeLabel;html=1;align=center;verticalAlign=middle;resizable=0;points=[];" parent="WMeuJgTBO1_McjWaMNvh-58" vertex="1" connectable="0">
          <mxGeometry x="-0.0827" relative="1" as="geometry">
            <mxPoint x="35" y="12" as="offset" />
          </mxGeometry>
        </mxCell>
        <mxCell id="WMeuJgTBO1_McjWaMNvh-60" value="" style="endArrow=classic;html=1;rounded=0;exitX=0;exitY=0.5;exitDx=0;exitDy=0;entryX=1;entryY=0.5;entryDx=0;entryDy=0;" parent="Lu89DYW8qhDD5Kn7B7-p-1" source="WMeuJgTBO1_McjWaMNvh-45" target="WMeuJgTBO1_McjWaMNvh-13" edge="1">
          <mxGeometry width="50" height="50" relative="1" as="geometry">
            <mxPoint x="260" y="590" as="sourcePoint" />
            <mxPoint x="80" y="580" as="targetPoint" />
          </mxGeometry>
        </mxCell>
        <mxCell id="WMeuJgTBO1_McjWaMNvh-61" value="" style="endArrow=classic;html=1;rounded=0;entryX=1.021;entryY=0.8;entryDx=0;entryDy=0;exitX=0;exitY=0.5;exitDx=0;exitDy=0;entryPerimeter=0;" parent="Lu89DYW8qhDD5Kn7B7-p-1" source="WMeuJgTBO1_McjWaMNvh-56" target="WMeuJgTBO1_McjWaMNvh-10" edge="1">
          <mxGeometry width="50" height="50" relative="1" as="geometry">
            <mxPoint x="307" y="340" as="sourcePoint" />
            <mxPoint x="210" y="385" as="targetPoint" />
          </mxGeometry>
        </mxCell>
        <mxCell id="WMeuJgTBO1_McjWaMNvh-62" style="edgeStyle=orthogonalEdgeStyle;rounded=0;orthogonalLoop=1;jettySize=auto;html=1;entryX=0;entryY=0.5;entryDx=0;entryDy=0;exitX=0;exitY=0;exitDx=0;exitDy=0;" parent="Lu89DYW8qhDD5Kn7B7-p-1" source="WMeuJgTBO1_McjWaMNvh-64" target="WMeuJgTBO1_McjWaMNvh-13" edge="1">
          <mxGeometry relative="1" as="geometry">
            <Array as="points">
              <mxPoint x="-810" y="20" />
              <mxPoint x="-810" y="605" />
            </Array>
          </mxGeometry>
        </mxCell>
        <mxCell id="WMeuJgTBO1_McjWaMNvh-63" style="edgeStyle=orthogonalEdgeStyle;rounded=0;orthogonalLoop=1;jettySize=auto;html=1;entryX=1;entryY=0.5;entryDx=0;entryDy=0;" parent="Lu89DYW8qhDD5Kn7B7-p-1" source="WMeuJgTBO1_McjWaMNvh-64" target="WMeuJgTBO1_McjWaMNvh-43" edge="1">
          <mxGeometry relative="1" as="geometry">
            <Array as="points">
              <mxPoint x="720" y="30" />
              <mxPoint x="720" y="245" />
            </Array>
          </mxGeometry>
        </mxCell>
        <mxCell id="WMeuJgTBO1_McjWaMNvh-64" value="&amp;lt;MS&amp;gt;&lt;br&gt;ASSETIZAÇÃO" style="rounded=1;whiteSpace=wrap;html=1;fillColor=#fff2cc;strokeColor=#d6b656;" parent="Lu89DYW8qhDD5Kn7B7-p-1" vertex="1">
          <mxGeometry x="-48" y="20" width="176" height="60" as="geometry" />
        </mxCell>
        <mxCell id="WMeuJgTBO1_McjWaMNvh-65" value="" style="endArrow=classic;html=1;rounded=0;entryX=0.5;entryY=1;entryDx=0;entryDy=0;exitX=0.925;exitY=-0.012;exitDx=0;exitDy=0;exitPerimeter=0;" parent="Lu89DYW8qhDD5Kn7B7-p-1" source="WMeuJgTBO1_McjWaMNvh-9" target="WMeuJgTBO1_McjWaMNvh-64" edge="1">
          <mxGeometry width="50" height="50" relative="1" as="geometry">
            <mxPoint x="-220" y="200" as="sourcePoint" />
            <mxPoint x="-170" y="150" as="targetPoint" />
          </mxGeometry>
        </mxCell>
        <mxCell id="WMeuJgTBO1_McjWaMNvh-66" value="" style="endArrow=classic;html=1;rounded=0;entryX=0.409;entryY=-0.031;entryDx=0;entryDy=0;entryPerimeter=0;exitX=0;exitY=0.5;exitDx=0;exitDy=0;" parent="Lu89DYW8qhDD5Kn7B7-p-1" source="WMeuJgTBO1_McjWaMNvh-64" target="WMeuJgTBO1_McjWaMNvh-0" edge="1">
          <mxGeometry width="50" height="50" relative="1" as="geometry">
            <mxPoint x="-50" y="50" as="sourcePoint" />
            <mxPoint x="-170" y="150" as="targetPoint" />
            <Array as="points">
              <mxPoint x="-700" y="50" />
            </Array>
          </mxGeometry>
        </mxCell>
        <mxCell id="WMeuJgTBO1_McjWaMNvh-67" value="" style="endArrow=classic;html=1;rounded=0;entryX=0;entryY=0.75;entryDx=0;entryDy=0;exitX=0;exitY=0.25;exitDx=0;exitDy=0;" parent="Lu89DYW8qhDD5Kn7B7-p-1" source="WMeuJgTBO1_McjWaMNvh-64" target="WMeuJgTBO1_McjWaMNvh-28" edge="1">
          <mxGeometry width="50" height="50" relative="1" as="geometry">
            <mxPoint x="-107" y="-80" as="sourcePoint" />
            <mxPoint x="-760" y="-2" as="targetPoint" />
            <Array as="points">
              <mxPoint x="-790" y="35" />
              <mxPoint x="-790" y="285" />
            </Array>
          </mxGeometry>
        </mxCell>
        <mxCell id="WMeuJgTBO1_McjWaMNvh-68" style="edgeStyle=orthogonalEdgeStyle;rounded=0;orthogonalLoop=1;jettySize=auto;html=1;entryX=0.828;entryY=0.076;entryDx=0;entryDy=0;entryPerimeter=0;" parent="Lu89DYW8qhDD5Kn7B7-p-1" source="WMeuJgTBO1_McjWaMNvh-64" target="WMeuJgTBO1_McjWaMNvh-46" edge="1">
          <mxGeometry relative="1" as="geometry" />
        </mxCell>
        <mxCell id="WMeuJgTBO1_McjWaMNvh-69" value="FATURAMENTO CONVERGENTE" style="whiteSpace=wrap;html=1;rounded=1;" parent="Lu89DYW8qhDD5Kn7B7-p-1" vertex="1">
          <mxGeometry x="-370" y="650" width="120" height="60" as="geometry" />
        </mxCell>
        <mxCell id="WMeuJgTBO1_McjWaMNvh-70" value="" style="endArrow=classic;html=1;rounded=0;exitX=0.5;exitY=1;exitDx=0;exitDy=0;entryX=0;entryY=0.5;entryDx=0;entryDy=0;" parent="Lu89DYW8qhDD5Kn7B7-p-1" source="WMeuJgTBO1_McjWaMNvh-13" target="WMeuJgTBO1_McjWaMNvh-69" edge="1">
          <mxGeometry width="50" height="50" relative="1" as="geometry">
            <mxPoint x="-270" y="580" as="sourcePoint" />
            <mxPoint x="-220" y="530" as="targetPoint" />
          </mxGeometry>
        </mxCell>
        <mxCell id="WMeuJgTBO1_McjWaMNvh-71" value="JOBS&lt;div&gt;Inclusão de conceito nobill em vários JOBS&lt;/div&gt;" style="rounded=1;whiteSpace=wrap;html=1;fillColor=#fff2cc;strokeColor=#d6b656;" parent="Lu89DYW8qhDD5Kn7B7-p-1" vertex="1">
          <mxGeometry x="-76" y="530" width="176" height="60" as="geometry" />
        </mxCell>
        <mxCell id="WMeuJgTBO1_McjWaMNvh-72" style="edgeStyle=orthogonalEdgeStyle;rounded=0;orthogonalLoop=1;jettySize=auto;html=1;entryX=0.5;entryY=1;entryDx=0;entryDy=0;entryPerimeter=0;" parent="Lu89DYW8qhDD5Kn7B7-p-1" source="WMeuJgTBO1_McjWaMNvh-71" target="WMeuJgTBO1_McjWaMNvh-3" edge="1">
          <mxGeometry relative="1" as="geometry" />
        </mxCell>
        <mxCell id="WMeuJgTBO1_McjWaMNvh-73" value="&amp;lt;MS&amp;gt;&lt;br&gt;VENDA BASE SOLAR" style="rounded=1;whiteSpace=wrap;html=1;fillColor=#fff2cc;strokeColor=#d6b656;" parent="Lu89DYW8qhDD5Kn7B7-p-1" vertex="1">
          <mxGeometry x="-318" y="140" width="176" height="60" as="geometry" />
        </mxCell>
        <mxCell id="WMeuJgTBO1_McjWaMNvh-74" value="" style="endArrow=classic;html=1;rounded=0;entryX=-0.007;entryY=0.767;entryDx=0;entryDy=0;exitX=1;exitY=0.5;exitDx=0;exitDy=0;entryPerimeter=0;" parent="Lu89DYW8qhDD5Kn7B7-p-1" source="WMeuJgTBO1_McjWaMNvh-73" target="WMeuJgTBO1_McjWaMNvh-10" edge="1">
          <mxGeometry width="50" height="50" relative="1" as="geometry">
            <mxPoint x="-100" y="180" as="sourcePoint" />
            <mxPoint x="-1" y="285" as="targetPoint" />
          </mxGeometry>
        </mxCell>
        <mxCell id="WMeuJgTBO1_McjWaMNvh-75" value="" style="endArrow=classic;html=1;rounded=0;exitX=1;exitY=0.5;exitDx=0;exitDy=0;entryX=0;entryY=0.25;entryDx=0;entryDy=0;" parent="Lu89DYW8qhDD5Kn7B7-p-1" source="WMeuJgTBO1_McjWaMNvh-22" target="WMeuJgTBO1_McjWaMNvh-73" edge="1">
          <mxGeometry width="50" height="50" relative="1" as="geometry">
            <mxPoint x="-400" y="205" as="sourcePoint" />
            <mxPoint x="-350" y="155" as="targetPoint" />
          </mxGeometry>
        </mxCell>
        <mxCell id="WMeuJgTBO1_McjWaMNvh-76" value="Prospect" style="edgeLabel;html=1;align=center;verticalAlign=middle;resizable=0;points=[];" parent="Lu89DYW8qhDD5Kn7B7-p-1" vertex="1" connectable="0">
          <mxGeometry x="-370" y="110" as="geometry">
            <mxPoint x="-4" as="offset" />
          </mxGeometry>
        </mxCell>
        <mxCell id="WMeuJgTBO1_McjWaMNvh-77" value="Mudança de&amp;nbsp;&lt;div&gt;pcte,&lt;span style=&quot;background-color: light-dark(#ffffff, var(--ge-dark-color, #121212)); color: light-dark(rgb(0, 0, 0), rgb(255, 255, 255));&quot;&gt;&amp;nbsp;adesão&lt;/span&gt;&lt;/div&gt;" style="edgeLabel;html=1;align=center;verticalAlign=middle;resizable=0;points=[];" parent="Lu89DYW8qhDD5Kn7B7-p-1" vertex="1" connectable="0">
          <mxGeometry x="-364" y="168" as="geometry">
            <mxPoint x="-6" y="-2" as="offset" />
          </mxGeometry>
        </mxCell>
        <mxCell id="WMeuJgTBO1_McjWaMNvh-78" value="&amp;lt;MS&amp;gt;&lt;br&gt;CANCELAMENTO" style="rounded=1;whiteSpace=wrap;html=1;fillColor=#fff2cc;strokeColor=#d6b656;" parent="Lu89DYW8qhDD5Kn7B7-p-1" vertex="1">
          <mxGeometry x="-318" y="290" width="176" height="60" as="geometry" />
        </mxCell>
        <mxCell id="WMeuJgTBO1_McjWaMNvh-79" value="" style="endArrow=classic;html=1;rounded=0;exitX=1;exitY=0.5;exitDx=0;exitDy=0;entryX=0;entryY=0.25;entryDx=0;entryDy=0;" parent="Lu89DYW8qhDD5Kn7B7-p-1" source="WMeuJgTBO1_McjWaMNvh-22" target="WMeuJgTBO1_McjWaMNvh-78" edge="1">
          <mxGeometry width="50" height="50" relative="1" as="geometry">
            <mxPoint x="-260" y="330" as="sourcePoint" />
            <mxPoint x="-210" y="280" as="targetPoint" />
          </mxGeometry>
        </mxCell>
        <mxCell id="WMeuJgTBO1_McjWaMNvh-80" value="Cancelamento" style="edgeLabel;html=1;align=center;verticalAlign=middle;resizable=0;points=[];" parent="Lu89DYW8qhDD5Kn7B7-p-1" vertex="1" connectable="0">
          <mxGeometry x="-361" y="184" as="geometry">
            <mxPoint x="-8" y="14" as="offset" />
          </mxGeometry>
        </mxCell>
        <mxCell id="WMeuJgTBO1_McjWaMNvh-81" value="&amp;lt;MS&amp;gt;&lt;br&gt;SUSPENSÃO/RETORNO&amp;nbsp; TEMPORÁRIA" style="rounded=1;whiteSpace=wrap;html=1;fillColor=#fff2cc;strokeColor=#d6b656;" parent="Lu89DYW8qhDD5Kn7B7-p-1" vertex="1">
          <mxGeometry x="-318" y="360" width="176" height="60" as="geometry" />
        </mxCell>
        <mxCell id="WMeuJgTBO1_McjWaMNvh-82" value="" style="endArrow=classic;html=1;rounded=0;exitX=1;exitY=0.75;exitDx=0;exitDy=0;entryX=0.011;entryY=0.15;entryDx=0;entryDy=0;entryPerimeter=0;" parent="Lu89DYW8qhDD5Kn7B7-p-1" source="WMeuJgTBO1_McjWaMNvh-22" target="WMeuJgTBO1_McjWaMNvh-81" edge="1">
          <mxGeometry width="50" height="50" relative="1" as="geometry">
            <mxPoint x="-420" y="180" as="sourcePoint" />
            <mxPoint x="-303" y="225" as="targetPoint" />
          </mxGeometry>
        </mxCell>
        <mxCell id="WMeuJgTBO1_McjWaMNvh-83" value="Suspensão&amp;nbsp;&lt;div&gt;Temporária&lt;/div&gt;" style="edgeLabel;html=1;align=center;verticalAlign=middle;resizable=0;points=[];" parent="WMeuJgTBO1_McjWaMNvh-82" vertex="1" connectable="0">
          <mxGeometry x="0.0773" y="3" relative="1" as="geometry">
            <mxPoint as="offset" />
          </mxGeometry>
        </mxCell>
        <mxCell id="WMeuJgTBO1_McjWaMNvh-84" value="" style="endArrow=classic;html=1;rounded=0;entryX=0;entryY=0.5;entryDx=0;entryDy=0;exitX=1;exitY=0.25;exitDx=0;exitDy=0;" parent="Lu89DYW8qhDD5Kn7B7-p-1" source="WMeuJgTBO1_McjWaMNvh-78" target="WMeuJgTBO1_McjWaMNvh-10" edge="1">
          <mxGeometry width="50" height="50" relative="1" as="geometry">
            <mxPoint x="-100" y="220" as="sourcePoint" />
            <mxPoint x="1" y="293" as="targetPoint" />
          </mxGeometry>
        </mxCell>
        <mxCell id="WMeuJgTBO1_McjWaMNvh-85" value="" style="endArrow=classic;html=1;rounded=0;entryX=0.036;entryY=0.2;entryDx=0;entryDy=0;exitX=1;exitY=0.25;exitDx=0;exitDy=0;entryPerimeter=0;" parent="Lu89DYW8qhDD5Kn7B7-p-1" source="WMeuJgTBO1_McjWaMNvh-81" target="WMeuJgTBO1_McjWaMNvh-11" edge="1">
          <mxGeometry width="50" height="50" relative="1" as="geometry">
            <mxPoint x="-120" y="250" as="sourcePoint" />
            <mxPoint x="-19" y="323" as="targetPoint" />
          </mxGeometry>
        </mxCell>
        <mxCell id="WMeuJgTBO1_McjWaMNvh-86" value="Se contrato fatura no Mobile e OS derivada do Solar: valida baixa da OS, atualiza atributo contrato e depois chama API Callback Solar" style="text;html=1;align=center;verticalAlign=middle;whiteSpace=wrap;rounded=0;" parent="Lu89DYW8qhDD5Kn7B7-p-1" vertex="1">
          <mxGeometry x="-314.5" y="430" width="160" height="67" as="geometry" />
        </mxCell>
        <mxCell id="WMeuJgTBO1_McjWaMNvh-87" value="NETSales (Bloqueio para contratos faturados no Mobile)" style="rounded=1;whiteSpace=wrap;html=1;fillColor=#fff2cc;strokeColor=#d6b656;" parent="Lu89DYW8qhDD5Kn7B7-p-1" vertex="1">
          <mxGeometry x="197" y="270" width="176" height="60" as="geometry" />
        </mxCell>
        <mxCell id="WMeuJgTBO1_McjWaMNvh-88" value="NETSMS (Bloqueio para contratos faturados no Mobile)" style="rounded=1;whiteSpace=wrap;html=1;fillColor=#fff2cc;strokeColor=#d6b656;" parent="Lu89DYW8qhDD5Kn7B7-p-1" vertex="1">
          <mxGeometry x="197" y="350" width="176" height="60" as="geometry" />
        </mxCell>
        <mxCell id="WMeuJgTBO1_McjWaMNvh-89" value="" style="endArrow=classic;html=1;rounded=0;entryX=0.993;entryY=0.233;entryDx=0;entryDy=0;exitX=0;exitY=0.25;exitDx=0;exitDy=0;entryPerimeter=0;" parent="Lu89DYW8qhDD5Kn7B7-p-1" source="WMeuJgTBO1_McjWaMNvh-87" target="WMeuJgTBO1_McjWaMNvh-11" edge="1">
          <mxGeometry width="50" height="50" relative="1" as="geometry">
            <mxPoint x="277" y="315" as="sourcePoint" />
            <mxPoint x="180" y="310" as="targetPoint" />
          </mxGeometry>
        </mxCell>
        <mxCell id="WMeuJgTBO1_McjWaMNvh-90" value="" style="endArrow=classic;html=1;rounded=0;entryX=1;entryY=0.5;entryDx=0;entryDy=0;exitX=0;exitY=0.5;exitDx=0;exitDy=0;" parent="Lu89DYW8qhDD5Kn7B7-p-1" source="WMeuJgTBO1_McjWaMNvh-88" target="WMeuJgTBO1_McjWaMNvh-11" edge="1">
          <mxGeometry width="50" height="50" relative="1" as="geometry">
            <mxPoint x="298" y="498" as="sourcePoint" />
            <mxPoint x="200" y="410" as="targetPoint" />
          </mxGeometry>
        </mxCell>
        <mxCell id="WMeuJgTBO1_McjWaMNvh-91" value="Se contrato fatura no Mobile e OS &lt;b&gt;não derivada&lt;/b&gt;&amp;nbsp;do Solar: valida baixa da OS, depois chama API Callback Mobile" style="text;html=1;align=center;verticalAlign=middle;whiteSpace=wrap;rounded=0;" parent="Lu89DYW8qhDD5Kn7B7-p-1" vertex="1">
          <mxGeometry x="380" y="568" width="160" height="67" as="geometry" />
        </mxCell>
        <mxCell id="WMeuJgTBO1_McjWaMNvh-97" value="JOB NETSMS&amp;nbsp;&lt;div&gt;Recebe arquivos de Collection (suspensão, retorno, cancelamento)&lt;/div&gt;" style="whiteSpace=wrap;html=1;rounded=1;fillColor=#fff2cc;strokeColor=#d6b656;" parent="Lu89DYW8qhDD5Kn7B7-p-1" vertex="1">
          <mxGeometry x="-570" y="670" width="140" height="60" as="geometry" />
        </mxCell>
        <mxCell id="37nCYrVKWNsHSkrD3MiR-4" style="edgeStyle=orthogonalEdgeStyle;rounded=0;orthogonalLoop=1;jettySize=auto;html=1;entryX=0;entryY=0.75;entryDx=0;entryDy=0;" edge="1" parent="Lu89DYW8qhDD5Kn7B7-p-1" source="37nCYrVKWNsHSkrD3MiR-1" target="WMeuJgTBO1_McjWaMNvh-13">
          <mxGeometry relative="1" as="geometry" />
        </mxCell>
        <mxCell id="37nCYrVKWNsHSkrD3MiR-1" value="&amp;lt;MS&amp;gt;&lt;br&gt;REGISTRO PRODUTOS ORIGEM URA/STB" style="rounded=1;whiteSpace=wrap;html=1;fillColor=#f8cecc;strokeColor=#b85450;" vertex="1" parent="Lu89DYW8qhDD5Kn7B7-p-1">
          <mxGeometry x="60" y="750" width="120" height="60" as="geometry" />
        </mxCell>
        <mxCell id="37nCYrVKWNsHSkrD3MiR-5" value="Incluir detalhes do produto baixado na OS" style="text;html=1;align=center;verticalAlign=middle;whiteSpace=wrap;rounded=0;" vertex="1" parent="Lu89DYW8qhDD5Kn7B7-p-1">
          <mxGeometry x="180" y="743" width="160" height="67" as="geometry" />
        </mxCell>
        <mxCell id="37nCYrVKWNsHSkrD3MiR-6" value="Incluir detalhes do produto baixado na OS" style="text;html=1;align=center;verticalAlign=middle;whiteSpace=wrap;rounded=0;" vertex="1" parent="Lu89DYW8qhDD5Kn7B7-p-1">
          <mxGeometry x="240" y="620" width="160" height="67" as="geometry" />
        </mxCell>
        <mxCell id="37nCYrVKWNsHSkrD3MiR-7" value="API VENDA BASE DXC NBA&lt;div&gt;BLOQUEIO DE CONTRATOS FATURADOS NA MÓVEL&lt;/div&gt;" style="rounded=1;whiteSpace=wrap;html=1;fillColor=#fff2cc;strokeColor=#d6b656;" vertex="1" parent="Lu89DYW8qhDD5Kn7B7-p-1">
          <mxGeometry x="-321.5" y="215" width="176" height="60" as="geometry" />
        </mxCell>
        <mxCell id="37nCYrVKWNsHSkrD3MiR-8" value="" style="endArrow=classic;html=1;rounded=0;exitX=1;exitY=0.75;exitDx=0;exitDy=0;entryX=0;entryY=0.5;entryDx=0;entryDy=0;" edge="1" parent="Lu89DYW8qhDD5Kn7B7-p-1" source="WMeuJgTBO1_McjWaMNvh-22" target="37nCYrVKWNsHSkrD3MiR-7">
          <mxGeometry width="50" height="50" relative="1" as="geometry">
            <mxPoint x="-390" y="230" as="sourcePoint" />
            <mxPoint x="-273" y="355" as="targetPoint" />
          </mxGeometry>
        </mxCell>
        <mxCell id="37nCYrVKWNsHSkrD3MiR-9" value="Portabilidade Fixa" style="rounded=1;whiteSpace=wrap;html=1;" vertex="1" parent="Lu89DYW8qhDD5Kn7B7-p-1">
          <mxGeometry x="520" y="60" width="120" height="60" as="geometry" />
        </mxCell>
        <mxCell id="37nCYrVKWNsHSkrD3MiR-10" style="edgeStyle=orthogonalEdgeStyle;rounded=0;orthogonalLoop=1;jettySize=auto;html=1;entryX=0.773;entryY=0.25;entryDx=0;entryDy=0;entryPerimeter=0;" edge="1" parent="Lu89DYW8qhDD5Kn7B7-p-1" source="37nCYrVKWNsHSkrD3MiR-9" target="WMeuJgTBO1_McjWaMNvh-3">
          <mxGeometry relative="1" as="geometry">
            <Array as="points">
              <mxPoint x="120" y="90" />
              <mxPoint x="120" y="210" />
            </Array>
          </mxGeometry>
        </mxCell>
        <mxCell id="37nCYrVKWNsHSkrD3MiR-11" value="" style="endArrow=classic;html=1;rounded=0;entryX=0.687;entryY=0.027;entryDx=0;entryDy=0;exitX=0;exitY=0.5;exitDx=0;exitDy=0;entryPerimeter=0;" edge="1" parent="Lu89DYW8qhDD5Kn7B7-p-1" source="WMeuJgTBO1_McjWaMNvh-44" target="37nCYrVKWNsHSkrD3MiR-1">
          <mxGeometry width="50" height="50" relative="1" as="geometry">
            <mxPoint x="257" y="180" as="sourcePoint" />
            <mxPoint x="160" y="261" as="targetPoint" />
          </mxGeometry>
        </mxCell>
        <mxCell id="37nCYrVKWNsHSkrD3MiR-15" value="" style="edgeStyle=orthogonalEdgeStyle;rounded=0;orthogonalLoop=1;jettySize=auto;html=1;" edge="1" parent="Lu89DYW8qhDD5Kn7B7-p-1" source="37nCYrVKWNsHSkrD3MiR-12" target="37nCYrVKWNsHSkrD3MiR-14">
          <mxGeometry relative="1" as="geometry" />
        </mxCell>
        <mxCell id="37nCYrVKWNsHSkrD3MiR-12" value="OTT (?)" style="rounded=1;whiteSpace=wrap;html=1;fillColor=#fff2cc;strokeColor=#d6b656;" vertex="1" parent="Lu89DYW8qhDD5Kn7B7-p-1">
          <mxGeometry x="197" y="420" width="176" height="60" as="geometry" />
        </mxCell>
        <mxCell id="37nCYrVKWNsHSkrD3MiR-14" value="JOB EXTRAÇÃO PARA MOBILE" style="whiteSpace=wrap;html=1;rounded=1;fillColor=#fff2cc;strokeColor=#d6b656;" vertex="1" parent="Lu89DYW8qhDD5Kn7B7-p-1">
          <mxGeometry x="481" y="420" width="120" height="60" as="geometry" />
        </mxCell>
      </root>
    </mxGraphModel>
  </diagram>
  <diagram name="COMPLETO" id="mXKqnKPXCJT9X1F6kq2N">
    <mxGraphModel dx="2564" dy="878" grid="1" gridSize="10" guides="1" tooltips="1" connect="1" arrows="1" fold="1" page="1" pageScale="1" pageWidth="827" pageHeight="1169" math="0" shadow="0">
      <root>
        <mxCell id="xfELZACQcITVjXONg1SJ-0" />
        <mxCell id="xfELZACQcITVjXONg1SJ-1" parent="xfELZACQcITVjXONg1SJ-0" />
        <mxCell id="xfELZACQcITVjXONg1SJ-2" value="SOLAR VENDA&lt;div&gt;MÓVEL E RESIDENCIAL&lt;/div&gt;" style="rounded=1;whiteSpace=wrap;html=1;" parent="xfELZACQcITVjXONg1SJ-1" vertex="1">
          <mxGeometry x="-710" y="120" width="120" height="60" as="geometry" />
        </mxCell>
        <mxCell id="xfELZACQcITVjXONg1SJ-3" value="&lt;b&gt;JORNADA CONVERGENTE&lt;/b&gt;" style="text;html=1;align=left;verticalAlign=middle;whiteSpace=wrap;rounded=0;" parent="xfELZACQcITVjXONg1SJ-1" vertex="1">
          <mxGeometry x="-570" y="50" width="270" height="30" as="geometry" />
        </mxCell>
        <mxCell id="xfELZACQcITVjXONg1SJ-4" value="OM" style="rounded=1;whiteSpace=wrap;html=1;verticalAlign=top;" parent="xfELZACQcITVjXONg1SJ-1" vertex="1">
          <mxGeometry x="-420" y="170" width="120" height="250" as="geometry" />
        </mxCell>
        <mxCell id="xfELZACQcITVjXONg1SJ-5" value="NETSALES" style="shape=cylinder3;whiteSpace=wrap;html=1;boundedLbl=1;backgroundOutline=1;size=15;verticalAlign=top;" parent="xfELZACQcITVjXONg1SJ-1" vertex="1">
          <mxGeometry x="-30" y="110" width="220" height="360" as="geometry" />
        </mxCell>
        <mxCell id="xfELZACQcITVjXONg1SJ-6" value="&amp;lt;MS&amp;gt;&lt;br&gt;PROPOSAL/CONFIRMATION" style="rounded=1;whiteSpace=wrap;html=1;fillColor=#fff2cc;strokeColor=#d6b656;" parent="xfELZACQcITVjXONg1SJ-1" vertex="1">
          <mxGeometry x="-240" y="130" width="176" height="60" as="geometry" />
        </mxCell>
        <mxCell id="xfELZACQcITVjXONg1SJ-7" value="" style="endArrow=classic;html=1;rounded=0;entryX=0;entryY=0.5;entryDx=0;entryDy=0;exitX=1;exitY=0.5;exitDx=0;exitDy=0;" parent="xfELZACQcITVjXONg1SJ-1" source="xfELZACQcITVjXONg1SJ-6" target="xfELZACQcITVjXONg1SJ-11" edge="1">
          <mxGeometry width="50" height="50" relative="1" as="geometry">
            <mxPoint x="-110" y="260" as="sourcePoint" />
            <mxPoint x="-60" y="210" as="targetPoint" />
          </mxGeometry>
        </mxCell>
        <mxCell id="xfELZACQcITVjXONg1SJ-8" value="" style="endArrow=classic;html=1;rounded=0;entryX=0;entryY=0.5;entryDx=0;entryDy=0;exitX=1;exitY=0.25;exitDx=0;exitDy=0;" parent="xfELZACQcITVjXONg1SJ-1" source="xfELZACQcITVjXONg1SJ-22" target="xfELZACQcITVjXONg1SJ-6" edge="1">
          <mxGeometry width="50" height="50" relative="1" as="geometry">
            <mxPoint x="-270" y="250" as="sourcePoint" />
            <mxPoint x="-220" y="200" as="targetPoint" />
            <Array as="points">
              <mxPoint x="-280" y="160" />
            </Array>
          </mxGeometry>
        </mxCell>
        <mxCell id="xfELZACQcITVjXONg1SJ-9" value="" style="endArrow=classic;html=1;rounded=0;entryX=0.5;entryY=0;entryDx=0;entryDy=0;exitX=1;exitY=0.5;exitDx=0;exitDy=0;" parent="xfELZACQcITVjXONg1SJ-1" source="xfELZACQcITVjXONg1SJ-2" target="xfELZACQcITVjXONg1SJ-22" edge="1">
          <mxGeometry width="50" height="50" relative="1" as="geometry">
            <mxPoint x="-550" y="350" as="sourcePoint" />
            <mxPoint x="-500" y="300" as="targetPoint" />
          </mxGeometry>
        </mxCell>
        <mxCell id="ZUT12uutVrvvPiMBppVo-2" value="Prospect" style="edgeLabel;html=1;align=center;verticalAlign=middle;resizable=0;points=[];" parent="xfELZACQcITVjXONg1SJ-9" vertex="1" connectable="0">
          <mxGeometry x="-0.4156" y="2" relative="1" as="geometry">
            <mxPoint y="-1" as="offset" />
          </mxGeometry>
        </mxCell>
        <mxCell id="xfELZACQcITVjXONg1SJ-10" value="CONTRATO" style="swimlane;fontStyle=0;childLayout=stackLayout;horizontal=1;startSize=30;horizontalStack=0;resizeParent=1;resizeParentMax=0;resizeLast=0;collapsible=1;marginBottom=0;whiteSpace=wrap;html=1;" parent="xfELZACQcITVjXONg1SJ-1" vertex="1">
          <mxGeometry y="180" width="140" height="90" as="geometry" />
        </mxCell>
        <mxCell id="xfELZACQcITVjXONg1SJ-11" value="NUM CONTRATO" style="text;strokeColor=none;fillColor=none;align=left;verticalAlign=middle;spacingLeft=4;spacingRight=4;overflow=hidden;points=[[0,0.5],[1,0.5]];portConstraint=eastwest;rotatable=0;whiteSpace=wrap;html=1;" parent="xfELZACQcITVjXONg1SJ-10" vertex="1">
          <mxGeometry y="30" width="140" height="30" as="geometry" />
        </mxCell>
        <mxCell id="xfELZACQcITVjXONg1SJ-12" value="FLAG NOBILL = TRUE" style="text;strokeColor=none;fillColor=none;align=left;verticalAlign=middle;spacingLeft=4;spacingRight=4;overflow=hidden;points=[[0,0.5],[1,0.5]];portConstraint=eastwest;rotatable=0;whiteSpace=wrap;html=1;" parent="xfELZACQcITVjXONg1SJ-10" vertex="1">
          <mxGeometry y="60" width="140" height="30" as="geometry" />
        </mxCell>
        <mxCell id="xfELZACQcITVjXONg1SJ-13" value="MOBILE" style="rounded=1;whiteSpace=wrap;html=1;" parent="xfELZACQcITVjXONg1SJ-1" vertex="1">
          <mxGeometry x="-520" y="565" width="120" height="60" as="geometry" />
        </mxCell>
        <mxCell id="xfELZACQcITVjXONg1SJ-14" value="" style="endArrow=classic;html=1;rounded=0;entryX=0.5;entryY=0;entryDx=0;entryDy=0;exitX=0.514;exitY=1;exitDx=0;exitDy=0;exitPerimeter=0;" parent="xfELZACQcITVjXONg1SJ-1" source="xfELZACQcITVjXONg1SJ-12" target="xfELZACQcITVjXONg1SJ-16" edge="1">
          <mxGeometry width="50" height="50" relative="1" as="geometry">
            <mxPoint x="-130" y="390" as="sourcePoint" />
            <mxPoint x="-80" y="340" as="targetPoint" />
          </mxGeometry>
        </mxCell>
        <mxCell id="xfELZACQcITVjXONg1SJ-15" value="" style="endArrow=classic;html=1;rounded=0;entryX=0.5;entryY=0;entryDx=0;entryDy=0;exitX=0.5;exitY=1;exitDx=0;exitDy=0;" parent="xfELZACQcITVjXONg1SJ-1" source="xfELZACQcITVjXONg1SJ-23" target="xfELZACQcITVjXONg1SJ-13" edge="1">
          <mxGeometry width="50" height="50" relative="1" as="geometry">
            <mxPoint x="-240" y="436.5" as="sourcePoint" />
            <mxPoint x="-180" y="420" as="targetPoint" />
          </mxGeometry>
        </mxCell>
        <mxCell id="xfELZACQcITVjXONg1SJ-16" value="SOLIC" style="swimlane;fontStyle=0;childLayout=stackLayout;horizontal=1;startSize=30;horizontalStack=0;resizeParent=1;resizeParentMax=0;resizeLast=0;collapsible=1;marginBottom=0;whiteSpace=wrap;html=1;" parent="xfELZACQcITVjXONg1SJ-1" vertex="1">
          <mxGeometry x="20" y="300" width="140" height="60" as="geometry" />
        </mxCell>
        <mxCell id="xfELZACQcITVjXONg1SJ-17" value="OS" style="swimlane;fontStyle=0;childLayout=stackLayout;horizontal=1;startSize=30;horizontalStack=0;resizeParent=1;resizeParentMax=0;resizeLast=0;collapsible=1;marginBottom=0;whiteSpace=wrap;html=1;" parent="xfELZACQcITVjXONg1SJ-1" vertex="1">
          <mxGeometry x="40" y="380" width="140" height="60" as="geometry" />
        </mxCell>
        <mxCell id="xfELZACQcITVjXONg1SJ-18" value="" style="endArrow=classic;html=1;rounded=0;entryX=0.5;entryY=0;entryDx=0;entryDy=0;exitX=0.5;exitY=1;exitDx=0;exitDy=0;" parent="xfELZACQcITVjXONg1SJ-1" source="xfELZACQcITVjXONg1SJ-16" target="xfELZACQcITVjXONg1SJ-17" edge="1">
          <mxGeometry width="50" height="50" relative="1" as="geometry">
            <mxPoint x="130" y="310" as="sourcePoint" />
            <mxPoint x="148" y="340" as="targetPoint" />
          </mxGeometry>
        </mxCell>
        <mxCell id="xfELZACQcITVjXONg1SJ-19" value="" style="endArrow=classic;html=1;rounded=0;exitX=0;exitY=0.5;exitDx=0;exitDy=0;entryX=1;entryY=0.5;entryDx=0;entryDy=0;" parent="xfELZACQcITVjXONg1SJ-1" source="xfELZACQcITVjXONg1SJ-17" target="xfELZACQcITVjXONg1SJ-21" edge="1">
          <mxGeometry width="50" height="50" relative="1" as="geometry">
            <mxPoint x="10" y="530" as="sourcePoint" />
            <mxPoint x="60" y="480" as="targetPoint" />
          </mxGeometry>
        </mxCell>
        <mxCell id="xfELZACQcITVjXONg1SJ-20" value="OS finalizada/instalação concluida com sucesso" style="text;html=1;align=center;verticalAlign=middle;whiteSpace=wrap;rounded=0;" parent="xfELZACQcITVjXONg1SJ-1" vertex="1">
          <mxGeometry x="-275" y="430" width="150" height="40" as="geometry" />
        </mxCell>
        <mxCell id="xfELZACQcITVjXONg1SJ-21" value="&amp;lt;MS&amp;gt;&lt;br&gt;CALLBACK SOLAR" style="rounded=1;whiteSpace=wrap;html=1;fillColor=#f8cecc;strokeColor=#b85450;" parent="xfELZACQcITVjXONg1SJ-1" vertex="1">
          <mxGeometry x="-260" y="370" width="120" height="60" as="geometry" />
        </mxCell>
        <mxCell id="xfELZACQcITVjXONg1SJ-22" value="PROPOSTA" style="rounded=0;whiteSpace=wrap;html=1;" parent="xfELZACQcITVjXONg1SJ-1" vertex="1">
          <mxGeometry x="-405" y="210" width="90" height="40" as="geometry" />
        </mxCell>
        <mxCell id="xfELZACQcITVjXONg1SJ-23" value="CONTRATO MOBILE" style="rounded=0;whiteSpace=wrap;html=1;" parent="xfELZACQcITVjXONg1SJ-1" vertex="1">
          <mxGeometry x="-405" y="363" width="90" height="40" as="geometry" />
        </mxCell>
        <mxCell id="xfELZACQcITVjXONg1SJ-24" value="" style="endArrow=classic;html=1;rounded=0;entryX=1;entryY=0.5;entryDx=0;entryDy=0;exitX=0;exitY=0.5;exitDx=0;exitDy=0;" parent="xfELZACQcITVjXONg1SJ-1" source="xfELZACQcITVjXONg1SJ-21" target="xfELZACQcITVjXONg1SJ-23" edge="1">
          <mxGeometry width="50" height="50" relative="1" as="geometry">
            <mxPoint x="-360" y="370" as="sourcePoint" />
            <mxPoint x="-310" y="320" as="targetPoint" />
          </mxGeometry>
        </mxCell>
        <mxCell id="xfELZACQcITVjXONg1SJ-25" value="Inicia Faturamento" style="text;html=1;align=center;verticalAlign=middle;whiteSpace=wrap;rounded=0;" parent="xfELZACQcITVjXONg1SJ-1" vertex="1">
          <mxGeometry x="-460" y="330" width="90" height="30" as="geometry" />
        </mxCell>
        <mxCell id="xfELZACQcITVjXONg1SJ-26" value="CONCILIAÇÃO FATURAMENTO NETSMS X ENG X MOBILE" style="rounded=1;whiteSpace=wrap;html=1;" parent="xfELZACQcITVjXONg1SJ-1" vertex="1">
          <mxGeometry x="-190" y="500" width="120" height="60" as="geometry" />
        </mxCell>
        <mxCell id="xfELZACQcITVjXONg1SJ-27" value="" style="endArrow=none;dashed=1;html=1;dashPattern=1 3;strokeWidth=2;rounded=0;exitX=0;exitY=0.25;exitDx=0;exitDy=0;entryX=1;entryY=0.5;entryDx=0;entryDy=0;" parent="xfELZACQcITVjXONg1SJ-1" source="xfELZACQcITVjXONg1SJ-26" target="iHlwcBSPsT472pVqr96H-19" edge="1">
          <mxGeometry width="50" height="50" relative="1" as="geometry">
            <mxPoint x="-520" y="450" as="sourcePoint" />
            <mxPoint x="-470" y="400" as="targetPoint" />
          </mxGeometry>
        </mxCell>
        <mxCell id="xfELZACQcITVjXONg1SJ-28" value="" style="endArrow=none;dashed=1;html=1;dashPattern=1 3;strokeWidth=2;rounded=0;entryX=0;entryY=1;entryDx=0;entryDy=-15;entryPerimeter=0;exitX=1.006;exitY=0.378;exitDx=0;exitDy=0;exitPerimeter=0;" parent="xfELZACQcITVjXONg1SJ-1" source="xfELZACQcITVjXONg1SJ-26" target="xfELZACQcITVjXONg1SJ-5" edge="1">
          <mxGeometry width="50" height="50" relative="1" as="geometry">
            <mxPoint x="-210" y="490" as="sourcePoint" />
            <mxPoint x="-40" y="430" as="targetPoint" />
          </mxGeometry>
        </mxCell>
        <mxCell id="ZUT12uutVrvvPiMBppVo-0" value="SOLAR ATENDIMENTO&lt;div&gt;MÓVEL E RESIDENCIAL&lt;/div&gt;" style="rounded=1;whiteSpace=wrap;html=1;" parent="xfELZACQcITVjXONg1SJ-1" vertex="1">
          <mxGeometry x="-710" y="230" width="120" height="60" as="geometry" />
        </mxCell>
        <mxCell id="OQOcU1ec_wb9z3X4j4pI-2" value="" style="endArrow=classic;html=1;rounded=0;exitX=1;exitY=0.75;exitDx=0;exitDy=0;entryX=0;entryY=0.25;entryDx=0;entryDy=0;" parent="xfELZACQcITVjXONg1SJ-1" source="xfELZACQcITVjXONg1SJ-2" target="xfELZACQcITVjXONg1SJ-22" edge="1">
          <mxGeometry width="50" height="50" relative="1" as="geometry">
            <mxPoint x="-510" y="260" as="sourcePoint" />
            <mxPoint x="-460" y="210" as="targetPoint" />
          </mxGeometry>
        </mxCell>
        <mxCell id="OQOcU1ec_wb9z3X4j4pI-3" value="Base (mudança pcte,&amp;nbsp;&lt;div&gt;cancelamento,&amp;nbsp;&lt;/div&gt;&lt;div&gt;suspensão)&lt;/div&gt;" style="edgeLabel;html=1;align=center;verticalAlign=middle;resizable=0;points=[];" parent="OQOcU1ec_wb9z3X4j4pI-2" vertex="1" connectable="0">
          <mxGeometry x="0.2265" y="1" relative="1" as="geometry">
            <mxPoint x="-46" y="2" as="offset" />
          </mxGeometry>
        </mxCell>
        <mxCell id="4uAXJeQVOj-7_v5U77NW-2" value="" style="endArrow=classic;html=1;rounded=0;exitX=1;exitY=0.25;exitDx=0;exitDy=0;entryX=0;entryY=0;entryDx=0;entryDy=0;" parent="xfELZACQcITVjXONg1SJ-1" source="ZUT12uutVrvvPiMBppVo-0" target="VyEb2J_uhtXTw7XvvOJz-0" edge="1">
          <mxGeometry width="50" height="50" relative="1" as="geometry">
            <mxPoint x="-520" y="290" as="sourcePoint" />
            <mxPoint x="-410" y="240" as="targetPoint" />
          </mxGeometry>
        </mxCell>
        <mxCell id="f67x2vKJR1Nt-F7nteiw-0" value="Técnico: VT, Abertura OS" style="edgeLabel;html=1;align=center;verticalAlign=middle;resizable=0;points=[];" parent="4uAXJeQVOj-7_v5U77NW-2" vertex="1" connectable="0">
          <mxGeometry x="-0.0872" y="1" relative="1" as="geometry">
            <mxPoint as="offset" />
          </mxGeometry>
        </mxCell>
        <mxCell id="0hDnkgJkTjVTGEFlybmw-0" value="" style="endArrow=classic;html=1;rounded=0;entryX=0;entryY=1;entryDx=0;entryDy=0;exitX=1;exitY=1;exitDx=0;exitDy=0;" parent="xfELZACQcITVjXONg1SJ-1" source="ZUT12uutVrvvPiMBppVo-0" target="VyEb2J_uhtXTw7XvvOJz-0" edge="1">
          <mxGeometry width="50" height="50" relative="1" as="geometry">
            <mxPoint x="-540" y="305" as="sourcePoint" />
            <mxPoint x="-490" y="255" as="targetPoint" />
          </mxGeometry>
        </mxCell>
        <mxCell id="0hDnkgJkTjVTGEFlybmw-1" value="Financeiro: 2a via,&amp;nbsp;&lt;div&gt;forma de pgto,&amp;nbsp;&lt;div&gt;endereço fatura,&amp;nbsp;&lt;/div&gt;&lt;div&gt;faturamento móvel,&amp;nbsp;&lt;/div&gt;&lt;div&gt;troca titularidade(?)&lt;/div&gt;&lt;/div&gt;" style="edgeLabel;html=1;align=center;verticalAlign=middle;resizable=0;points=[];" parent="0hDnkgJkTjVTGEFlybmw-0" vertex="1" connectable="0">
          <mxGeometry x="-0.6552" y="-2" relative="1" as="geometry">
            <mxPoint x="38" y="5" as="offset" />
          </mxGeometry>
        </mxCell>
        <mxCell id="VyEb2J_uhtXTw7XvvOJz-0" value="ASSINANTE" style="rounded=0;whiteSpace=wrap;html=1;" vertex="1" parent="xfELZACQcITVjXONg1SJ-1">
          <mxGeometry x="-405" y="270" width="90" height="40" as="geometry" />
        </mxCell>
        <mxCell id="FpoB-obAHgI2EOTA53UW-0" value="&amp;lt;MS&amp;gt;&lt;br&gt;ATENDIMENTO" style="rounded=1;whiteSpace=wrap;html=1;fillColor=#fff2cc;strokeColor=#d6b656;" vertex="1" parent="xfELZACQcITVjXONg1SJ-1">
          <mxGeometry x="-240" y="210" width="176" height="60" as="geometry" />
        </mxCell>
        <mxCell id="FpoB-obAHgI2EOTA53UW-3" value="" style="endArrow=classic;html=1;rounded=0;entryX=-0.01;entryY=0.013;entryDx=0;entryDy=0;entryPerimeter=0;exitX=1;exitY=0.5;exitDx=0;exitDy=0;" edge="1" parent="xfELZACQcITVjXONg1SJ-1" source="FpoB-obAHgI2EOTA53UW-0" target="xfELZACQcITVjXONg1SJ-12">
          <mxGeometry width="50" height="50" relative="1" as="geometry">
            <mxPoint x="-320" y="340" as="sourcePoint" />
            <mxPoint x="-270" y="290" as="targetPoint" />
          </mxGeometry>
        </mxCell>
        <mxCell id="FpoB-obAHgI2EOTA53UW-4" value="" style="endArrow=classic;html=1;rounded=0;entryX=0;entryY=0.5;entryDx=0;entryDy=0;exitX=1;exitY=0.5;exitDx=0;exitDy=0;" edge="1" parent="xfELZACQcITVjXONg1SJ-1" source="VyEb2J_uhtXTw7XvvOJz-0" target="FpoB-obAHgI2EOTA53UW-0">
          <mxGeometry width="50" height="50" relative="1" as="geometry">
            <mxPoint x="-320" y="340" as="sourcePoint" />
            <mxPoint x="-270" y="290" as="targetPoint" />
          </mxGeometry>
        </mxCell>
        <mxCell id="pO4ZtTJuQILCoJ84chqU-0" value="Se FLAGNOBILL foi solicitada alteração, altera flag ao baixar OS e avisa OM para calcular PRORATA do cliente" style="text;html=1;align=center;verticalAlign=middle;whiteSpace=wrap;rounded=0;" vertex="1" parent="xfELZACQcITVjXONg1SJ-1">
          <mxGeometry x="-270" y="300" width="160" height="67" as="geometry" />
        </mxCell>
        <mxCell id="pO4ZtTJuQILCoJ84chqU-1" value="" style="endArrow=classic;html=1;rounded=0;exitX=1;exitY=0.25;exitDx=0;exitDy=0;entryX=0.024;entryY=0.76;entryDx=0;entryDy=0;fillColor=#f8cecc;strokeColor=#b85450;strokeWidth=3;entryPerimeter=0;" edge="1" parent="xfELZACQcITVjXONg1SJ-1" source="xfELZACQcITVjXONg1SJ-21" target="xfELZACQcITVjXONg1SJ-12">
          <mxGeometry width="50" height="50" relative="1" as="geometry">
            <mxPoint x="-140" y="315" as="sourcePoint" />
            <mxPoint x="10" y="265" as="targetPoint" />
          </mxGeometry>
        </mxCell>
        <mxCell id="pO4ZtTJuQILCoJ84chqU-3" style="edgeStyle=orthogonalEdgeStyle;rounded=0;orthogonalLoop=1;jettySize=auto;html=1;exitX=0.5;exitY=1;exitDx=0;exitDy=0;" edge="1" parent="xfELZACQcITVjXONg1SJ-1" source="pO4ZtTJuQILCoJ84chqU-0" target="pO4ZtTJuQILCoJ84chqU-0">
          <mxGeometry relative="1" as="geometry" />
        </mxCell>
        <mxCell id="167DItCjxoijRsQnCKUz-0" value="Atendimento Não Solar Minhas, URA, Whatsapp (troca nr telefone fixo, etc)" style="rounded=1;whiteSpace=wrap;html=1;" vertex="1" parent="xfELZACQcITVjXONg1SJ-1">
          <mxGeometry x="620" y="205" width="120" height="60" as="geometry" />
        </mxCell>
        <mxCell id="167DItCjxoijRsQnCKUz-1" value="&amp;lt;MS&amp;gt;&lt;br&gt;ADESÃO" style="rounded=1;whiteSpace=wrap;html=1;fillColor=#fff2cc;strokeColor=#d6b656;" vertex="1" parent="xfELZACQcITVjXONg1SJ-1">
          <mxGeometry x="237" y="150" width="176" height="60" as="geometry" />
        </mxCell>
        <mxCell id="167DItCjxoijRsQnCKUz-7" value="&amp;lt;MS&amp;gt;&lt;br&gt;CALLBACK MOBILE" style="rounded=1;whiteSpace=wrap;html=1;fillColor=#f8cecc;strokeColor=#b85450;" vertex="1" parent="xfELZACQcITVjXONg1SJ-1">
          <mxGeometry x="293" y="565" width="120" height="60" as="geometry" />
        </mxCell>
        <mxCell id="167DItCjxoijRsQnCKUz-11" value="Venda não Solar (STB,URA, etc)" style="rounded=1;whiteSpace=wrap;html=1;" vertex="1" parent="xfELZACQcITVjXONg1SJ-1">
          <mxGeometry x="620" y="120" width="120" height="60" as="geometry" />
        </mxCell>
        <mxCell id="167DItCjxoijRsQnCKUz-12" value="APIGEE" style="rounded=1;whiteSpace=wrap;html=1;verticalAlign=top;" vertex="1" parent="xfELZACQcITVjXONg1SJ-1">
          <mxGeometry x="440" y="115" width="120" height="165" as="geometry" />
        </mxCell>
        <mxCell id="167DItCjxoijRsQnCKUz-13" value="PROPOSTA" style="rounded=0;whiteSpace=wrap;html=1;" vertex="1" parent="xfELZACQcITVjXONg1SJ-1">
          <mxGeometry x="455" y="155" width="90" height="40" as="geometry" />
        </mxCell>
        <mxCell id="167DItCjxoijRsQnCKUz-15" value="ASSINANTE" style="rounded=0;whiteSpace=wrap;html=1;" vertex="1" parent="xfELZACQcITVjXONg1SJ-1">
          <mxGeometry x="455" y="215" width="90" height="40" as="geometry" />
        </mxCell>
        <mxCell id="167DItCjxoijRsQnCKUz-17" value="" style="endArrow=classic;html=1;rounded=0;exitX=0;exitY=0.5;exitDx=0;exitDy=0;entryX=1;entryY=0.5;entryDx=0;entryDy=0;" edge="1" parent="xfELZACQcITVjXONg1SJ-1" source="167DItCjxoijRsQnCKUz-0" target="167DItCjxoijRsQnCKUz-15">
          <mxGeometry width="50" height="50" relative="1" as="geometry">
            <mxPoint x="440" y="270" as="sourcePoint" />
            <mxPoint x="490" y="220" as="targetPoint" />
          </mxGeometry>
        </mxCell>
        <mxCell id="167DItCjxoijRsQnCKUz-19" value="" style="endArrow=classic;html=1;rounded=0;exitX=0;exitY=0.25;exitDx=0;exitDy=0;entryX=1;entryY=0.25;entryDx=0;entryDy=0;" edge="1" parent="xfELZACQcITVjXONg1SJ-1" source="167DItCjxoijRsQnCKUz-11" target="167DItCjxoijRsQnCKUz-13">
          <mxGeometry width="50" height="50" relative="1" as="geometry">
            <mxPoint x="655" y="230" as="sourcePoint" />
            <mxPoint x="580" y="230" as="targetPoint" />
          </mxGeometry>
        </mxCell>
        <mxCell id="iHlwcBSPsT472pVqr96H-0" value="" style="endArrow=classic;html=1;rounded=0;entryX=1;entryY=0.5;entryDx=0;entryDy=0;exitX=0;exitY=0.5;exitDx=0;exitDy=0;" edge="1" parent="xfELZACQcITVjXONg1SJ-1" source="167DItCjxoijRsQnCKUz-1" target="xfELZACQcITVjXONg1SJ-11">
          <mxGeometry width="50" height="50" relative="1" as="geometry">
            <mxPoint x="230" y="270" as="sourcePoint" />
            <mxPoint x="280" y="220" as="targetPoint" />
          </mxGeometry>
        </mxCell>
        <mxCell id="iHlwcBSPsT472pVqr96H-1" value="" style="endArrow=classic;html=1;rounded=0;entryX=1;entryY=0.5;entryDx=0;entryDy=0;exitX=0;exitY=0.5;exitDx=0;exitDy=0;" edge="1" parent="xfELZACQcITVjXONg1SJ-1" source="167DItCjxoijRsQnCKUz-13" target="167DItCjxoijRsQnCKUz-1">
          <mxGeometry width="50" height="50" relative="1" as="geometry">
            <mxPoint x="360" y="270" as="sourcePoint" />
            <mxPoint x="410" y="220" as="targetPoint" />
          </mxGeometry>
        </mxCell>
        <mxCell id="iHlwcBSPsT472pVqr96H-2" value="&amp;lt;MS&amp;gt;&lt;br&gt;ATENDIMENTO" style="rounded=1;whiteSpace=wrap;html=1;fillColor=#fff2cc;strokeColor=#d6b656;" vertex="1" parent="xfELZACQcITVjXONg1SJ-1">
          <mxGeometry x="237" y="230" width="176" height="60" as="geometry" />
        </mxCell>
        <mxCell id="iHlwcBSPsT472pVqr96H-4" value="" style="endArrow=classic;html=1;rounded=0;entryX=1;entryY=0.5;entryDx=0;entryDy=0;exitX=0;exitY=0.5;exitDx=0;exitDy=0;" edge="1" parent="xfELZACQcITVjXONg1SJ-1" source="167DItCjxoijRsQnCKUz-15" target="iHlwcBSPsT472pVqr96H-2">
          <mxGeometry width="50" height="50" relative="1" as="geometry">
            <mxPoint x="502" y="190" as="sourcePoint" />
            <mxPoint x="460" y="195" as="targetPoint" />
          </mxGeometry>
        </mxCell>
        <mxCell id="iHlwcBSPsT472pVqr96H-5" value="" style="endArrow=classic;html=1;rounded=0;exitX=1;exitY=0.75;exitDx=0;exitDy=0;entryX=0.25;entryY=0;entryDx=0;entryDy=0;" edge="1" parent="xfELZACQcITVjXONg1SJ-1" source="xfELZACQcITVjXONg1SJ-17" target="167DItCjxoijRsQnCKUz-7">
          <mxGeometry width="50" height="50" relative="1" as="geometry">
            <mxPoint x="150" y="410" as="sourcePoint" />
            <mxPoint x="-30" y="400" as="targetPoint" />
          </mxGeometry>
        </mxCell>
        <mxCell id="iHlwcBSPsT472pVqr96H-18" value="Quando venda/atendimento&amp;nbsp;&lt;div&gt;iniciado fora do Solar&lt;/div&gt;" style="edgeLabel;html=1;align=center;verticalAlign=middle;resizable=0;points=[];" vertex="1" connectable="0" parent="iHlwcBSPsT472pVqr96H-5">
          <mxGeometry x="-0.0827" relative="1" as="geometry">
            <mxPoint x="35" y="12" as="offset" />
          </mxGeometry>
        </mxCell>
        <mxCell id="iHlwcBSPsT472pVqr96H-6" value="" style="endArrow=classic;html=1;rounded=0;exitX=0;exitY=0.5;exitDx=0;exitDy=0;entryX=1;entryY=0.5;entryDx=0;entryDy=0;" edge="1" parent="xfELZACQcITVjXONg1SJ-1" source="167DItCjxoijRsQnCKUz-7" target="xfELZACQcITVjXONg1SJ-13">
          <mxGeometry width="50" height="50" relative="1" as="geometry">
            <mxPoint x="300" y="580" as="sourcePoint" />
            <mxPoint x="120" y="570" as="targetPoint" />
          </mxGeometry>
        </mxCell>
        <mxCell id="iHlwcBSPsT472pVqr96H-7" value="" style="endArrow=classic;html=1;rounded=0;entryX=1;entryY=0.5;entryDx=0;entryDy=0;exitX=0;exitY=0.5;exitDx=0;exitDy=0;" edge="1" parent="xfELZACQcITVjXONg1SJ-1" source="iHlwcBSPsT472pVqr96H-2" target="xfELZACQcITVjXONg1SJ-12">
          <mxGeometry width="50" height="50" relative="1" as="geometry">
            <mxPoint x="347" y="330" as="sourcePoint" />
            <mxPoint x="250" y="375" as="targetPoint" />
          </mxGeometry>
        </mxCell>
        <mxCell id="iHlwcBSPsT472pVqr96H-15" style="edgeStyle=orthogonalEdgeStyle;rounded=0;orthogonalLoop=1;jettySize=auto;html=1;entryX=0;entryY=0.5;entryDx=0;entryDy=0;exitX=0;exitY=0;exitDx=0;exitDy=0;" edge="1" parent="xfELZACQcITVjXONg1SJ-1" source="iHlwcBSPsT472pVqr96H-8" target="xfELZACQcITVjXONg1SJ-13">
          <mxGeometry relative="1" as="geometry">
            <Array as="points">
              <mxPoint x="-770" y="10" />
              <mxPoint x="-770" y="595" />
            </Array>
          </mxGeometry>
        </mxCell>
        <mxCell id="iHlwcBSPsT472pVqr96H-17" style="edgeStyle=orthogonalEdgeStyle;rounded=0;orthogonalLoop=1;jettySize=auto;html=1;entryX=1;entryY=0.5;entryDx=0;entryDy=0;" edge="1" parent="xfELZACQcITVjXONg1SJ-1" source="iHlwcBSPsT472pVqr96H-8" target="167DItCjxoijRsQnCKUz-0">
          <mxGeometry relative="1" as="geometry">
            <Array as="points">
              <mxPoint x="760" y="20" />
              <mxPoint x="760" y="235" />
            </Array>
          </mxGeometry>
        </mxCell>
        <mxCell id="iHlwcBSPsT472pVqr96H-8" value="&amp;lt;MS&amp;gt;&lt;br&gt;ASSETIZAÇÃO" style="rounded=1;whiteSpace=wrap;html=1;fillColor=#fff2cc;strokeColor=#d6b656;" vertex="1" parent="xfELZACQcITVjXONg1SJ-1">
          <mxGeometry x="-8" y="10" width="176" height="60" as="geometry" />
        </mxCell>
        <mxCell id="iHlwcBSPsT472pVqr96H-10" value="" style="endArrow=classic;html=1;rounded=0;entryX=0.5;entryY=1;entryDx=0;entryDy=0;exitX=0.925;exitY=-0.012;exitDx=0;exitDy=0;exitPerimeter=0;" edge="1" parent="xfELZACQcITVjXONg1SJ-1" source="xfELZACQcITVjXONg1SJ-10" target="iHlwcBSPsT472pVqr96H-8">
          <mxGeometry width="50" height="50" relative="1" as="geometry">
            <mxPoint x="-180" y="190" as="sourcePoint" />
            <mxPoint x="-130" y="140" as="targetPoint" />
          </mxGeometry>
        </mxCell>
        <mxCell id="iHlwcBSPsT472pVqr96H-11" value="" style="endArrow=classic;html=1;rounded=0;entryX=0.409;entryY=-0.031;entryDx=0;entryDy=0;entryPerimeter=0;exitX=0;exitY=0.5;exitDx=0;exitDy=0;" edge="1" parent="xfELZACQcITVjXONg1SJ-1" source="iHlwcBSPsT472pVqr96H-8" target="xfELZACQcITVjXONg1SJ-2">
          <mxGeometry width="50" height="50" relative="1" as="geometry">
            <mxPoint x="-10" y="40" as="sourcePoint" />
            <mxPoint x="-130" y="140" as="targetPoint" />
            <Array as="points">
              <mxPoint x="-660" y="40" />
            </Array>
          </mxGeometry>
        </mxCell>
        <mxCell id="iHlwcBSPsT472pVqr96H-12" value="" style="endArrow=classic;html=1;rounded=0;entryX=0;entryY=0.75;entryDx=0;entryDy=0;exitX=0;exitY=0.25;exitDx=0;exitDy=0;" edge="1" parent="xfELZACQcITVjXONg1SJ-1" source="iHlwcBSPsT472pVqr96H-8" target="ZUT12uutVrvvPiMBppVo-0">
          <mxGeometry width="50" height="50" relative="1" as="geometry">
            <mxPoint x="-67" y="-90" as="sourcePoint" />
            <mxPoint x="-720" y="-12" as="targetPoint" />
            <Array as="points">
              <mxPoint x="-750" y="25" />
              <mxPoint x="-750" y="275" />
            </Array>
          </mxGeometry>
        </mxCell>
        <mxCell id="iHlwcBSPsT472pVqr96H-16" style="edgeStyle=orthogonalEdgeStyle;rounded=0;orthogonalLoop=1;jettySize=auto;html=1;entryX=0.828;entryY=0.076;entryDx=0;entryDy=0;entryPerimeter=0;" edge="1" parent="xfELZACQcITVjXONg1SJ-1" source="iHlwcBSPsT472pVqr96H-8" target="167DItCjxoijRsQnCKUz-11">
          <mxGeometry relative="1" as="geometry" />
        </mxCell>
        <mxCell id="iHlwcBSPsT472pVqr96H-19" value="FATURAMENTO CONVERGENTE" style="whiteSpace=wrap;html=1;rounded=1;" vertex="1" parent="xfELZACQcITVjXONg1SJ-1">
          <mxGeometry x="-350" y="490" width="120" height="60" as="geometry" />
        </mxCell>
        <mxCell id="iHlwcBSPsT472pVqr96H-22" value="" style="endArrow=classic;html=1;rounded=0;exitX=0.75;exitY=0;exitDx=0;exitDy=0;entryX=0;entryY=0.5;entryDx=0;entryDy=0;" edge="1" parent="xfELZACQcITVjXONg1SJ-1" source="xfELZACQcITVjXONg1SJ-13" target="iHlwcBSPsT472pVqr96H-19">
          <mxGeometry width="50" height="50" relative="1" as="geometry">
            <mxPoint x="-230" y="570" as="sourcePoint" />
            <mxPoint x="-180" y="520" as="targetPoint" />
          </mxGeometry>
        </mxCell>
        <mxCell id="iHlwcBSPsT472pVqr96H-23" value="JOBS&lt;div&gt;Inclusão de conceito nobill em vários JOBS&lt;/div&gt;" style="rounded=1;whiteSpace=wrap;html=1;fillColor=#fff2cc;strokeColor=#d6b656;" vertex="1" parent="xfELZACQcITVjXONg1SJ-1">
          <mxGeometry x="-8" y="520" width="176" height="60" as="geometry" />
        </mxCell>
        <mxCell id="iHlwcBSPsT472pVqr96H-24" style="edgeStyle=orthogonalEdgeStyle;rounded=0;orthogonalLoop=1;jettySize=auto;html=1;entryX=0.5;entryY=1;entryDx=0;entryDy=0;entryPerimeter=0;" edge="1" parent="xfELZACQcITVjXONg1SJ-1" source="iHlwcBSPsT472pVqr96H-23" target="xfELZACQcITVjXONg1SJ-5">
          <mxGeometry relative="1" as="geometry" />
        </mxCell>
      </root>
    </mxGraphModel>
  </diagram>
  <diagram name="PROSPECT" id="13g_2x9SHFPzN_U81BjT">
    <mxGraphModel dx="1042" dy="527" grid="1" gridSize="10" guides="1" tooltips="1" connect="1" arrows="1" fold="1" page="1" pageScale="1" pageWidth="827" pageHeight="1169" math="0" shadow="0">
      <root>
        <mxCell id="0" />
        <mxCell id="1" parent="0" />
        <mxCell id="x6G5JrCz9jpSUVPoRQnr-1" value="SOLAR&lt;div&gt;MÓVEL E RESIDENCIAL&lt;/div&gt;" style="rounded=1;whiteSpace=wrap;html=1;" parent="1" vertex="1">
          <mxGeometry x="20" y="100" width="120" height="60" as="geometry" />
        </mxCell>
        <mxCell id="x6G5JrCz9jpSUVPoRQnr-2" value="&lt;b&gt;JORNADA PROSPECT&lt;/b&gt;" style="text;html=1;align=left;verticalAlign=middle;whiteSpace=wrap;rounded=0;" parent="1" vertex="1">
          <mxGeometry x="20" y="10" width="270" height="30" as="geometry" />
        </mxCell>
        <mxCell id="x6G5JrCz9jpSUVPoRQnr-3" value="OM" style="rounded=1;whiteSpace=wrap;html=1;verticalAlign=top;" parent="1" vertex="1">
          <mxGeometry x="170" y="130" width="120" height="160" as="geometry" />
        </mxCell>
        <mxCell id="x6G5JrCz9jpSUVPoRQnr-4" value="NETSALES" style="shape=cylinder3;whiteSpace=wrap;html=1;boundedLbl=1;backgroundOutline=1;size=15;verticalAlign=top;" parent="1" vertex="1">
          <mxGeometry x="560" y="70" width="220" height="340" as="geometry" />
        </mxCell>
        <mxCell id="x6G5JrCz9jpSUVPoRQnr-5" value="&amp;lt;MS&amp;gt;&lt;br&gt;PROPOSAL/CONFIRMATION" style="rounded=1;whiteSpace=wrap;html=1;fillColor=#fff2cc;strokeColor=#d6b656;" parent="1" vertex="1">
          <mxGeometry x="350" y="90" width="176" height="60" as="geometry" />
        </mxCell>
        <mxCell id="x6G5JrCz9jpSUVPoRQnr-6" value="" style="endArrow=classic;html=1;rounded=0;entryX=0;entryY=0.5;entryDx=0;entryDy=0;exitX=1;exitY=0.5;exitDx=0;exitDy=0;" parent="1" source="x6G5JrCz9jpSUVPoRQnr-5" target="x6G5JrCz9jpSUVPoRQnr-10" edge="1">
          <mxGeometry width="50" height="50" relative="1" as="geometry">
            <mxPoint x="480" y="220" as="sourcePoint" />
            <mxPoint x="530" y="170" as="targetPoint" />
          </mxGeometry>
        </mxCell>
        <mxCell id="x6G5JrCz9jpSUVPoRQnr-7" value="" style="endArrow=classic;html=1;rounded=0;entryX=0;entryY=0.5;entryDx=0;entryDy=0;exitX=1;exitY=0.25;exitDx=0;exitDy=0;" parent="1" source="x6G5JrCz9jpSUVPoRQnr-21" target="x6G5JrCz9jpSUVPoRQnr-5" edge="1">
          <mxGeometry width="50" height="50" relative="1" as="geometry">
            <mxPoint x="320" y="210" as="sourcePoint" />
            <mxPoint x="370" y="160" as="targetPoint" />
            <Array as="points">
              <mxPoint x="310" y="120" />
            </Array>
          </mxGeometry>
        </mxCell>
        <mxCell id="x6G5JrCz9jpSUVPoRQnr-8" value="" style="endArrow=classic;html=1;rounded=0;entryX=0.5;entryY=0;entryDx=0;entryDy=0;exitX=1;exitY=0.5;exitDx=0;exitDy=0;" parent="1" source="x6G5JrCz9jpSUVPoRQnr-1" target="x6G5JrCz9jpSUVPoRQnr-21" edge="1">
          <mxGeometry width="50" height="50" relative="1" as="geometry">
            <mxPoint x="40" y="310" as="sourcePoint" />
            <mxPoint x="90" y="260" as="targetPoint" />
          </mxGeometry>
        </mxCell>
        <mxCell id="x6G5JrCz9jpSUVPoRQnr-9" value="CONTRATO" style="swimlane;fontStyle=0;childLayout=stackLayout;horizontal=1;startSize=30;horizontalStack=0;resizeParent=1;resizeParentMax=0;resizeLast=0;collapsible=1;marginBottom=0;whiteSpace=wrap;html=1;" parent="1" vertex="1">
          <mxGeometry x="590" y="140" width="140" height="90" as="geometry" />
        </mxCell>
        <mxCell id="x6G5JrCz9jpSUVPoRQnr-10" value="NUM CONTRATO" style="text;strokeColor=none;fillColor=none;align=left;verticalAlign=middle;spacingLeft=4;spacingRight=4;overflow=hidden;points=[[0,0.5],[1,0.5]];portConstraint=eastwest;rotatable=0;whiteSpace=wrap;html=1;" parent="x6G5JrCz9jpSUVPoRQnr-9" vertex="1">
          <mxGeometry y="30" width="140" height="30" as="geometry" />
        </mxCell>
        <mxCell id="x6G5JrCz9jpSUVPoRQnr-11" value="FLAG NOBILL = TRUE" style="text;strokeColor=none;fillColor=none;align=left;verticalAlign=middle;spacingLeft=4;spacingRight=4;overflow=hidden;points=[[0,0.5],[1,0.5]];portConstraint=eastwest;rotatable=0;whiteSpace=wrap;html=1;" parent="x6G5JrCz9jpSUVPoRQnr-9" vertex="1">
          <mxGeometry y="60" width="140" height="30" as="geometry" />
        </mxCell>
        <mxCell id="x6G5JrCz9jpSUVPoRQnr-12" value="MOBILE" style="rounded=1;whiteSpace=wrap;html=1;" parent="1" vertex="1">
          <mxGeometry x="10" y="250" width="120" height="60" as="geometry" />
        </mxCell>
        <mxCell id="x6G5JrCz9jpSUVPoRQnr-13" value="" style="endArrow=classic;html=1;rounded=0;entryX=0.5;entryY=0;entryDx=0;entryDy=0;exitX=0.514;exitY=1;exitDx=0;exitDy=0;exitPerimeter=0;" parent="1" source="x6G5JrCz9jpSUVPoRQnr-11" target="x6G5JrCz9jpSUVPoRQnr-15" edge="1">
          <mxGeometry width="50" height="50" relative="1" as="geometry">
            <mxPoint x="460" y="350" as="sourcePoint" />
            <mxPoint x="510" y="300" as="targetPoint" />
          </mxGeometry>
        </mxCell>
        <mxCell id="x6G5JrCz9jpSUVPoRQnr-14" value="" style="endArrow=classic;html=1;rounded=0;entryX=1;entryY=0.5;entryDx=0;entryDy=0;exitX=0;exitY=0.5;exitDx=0;exitDy=0;" parent="1" source="x6G5JrCz9jpSUVPoRQnr-22" target="x6G5JrCz9jpSUVPoRQnr-12" edge="1">
          <mxGeometry width="50" height="50" relative="1" as="geometry">
            <mxPoint x="350" y="396.5" as="sourcePoint" />
            <mxPoint x="410" y="380" as="targetPoint" />
          </mxGeometry>
        </mxCell>
        <mxCell id="x6G5JrCz9jpSUVPoRQnr-15" value="SOLIC" style="swimlane;fontStyle=0;childLayout=stackLayout;horizontal=1;startSize=30;horizontalStack=0;resizeParent=1;resizeParentMax=0;resizeLast=0;collapsible=1;marginBottom=0;whiteSpace=wrap;html=1;" parent="1" vertex="1">
          <mxGeometry x="610" y="260" width="140" height="60" as="geometry" />
        </mxCell>
        <mxCell id="x6G5JrCz9jpSUVPoRQnr-16" value="OS" style="swimlane;fontStyle=0;childLayout=stackLayout;horizontal=1;startSize=30;horizontalStack=0;resizeParent=1;resizeParentMax=0;resizeLast=0;collapsible=1;marginBottom=0;whiteSpace=wrap;html=1;" parent="1" vertex="1">
          <mxGeometry x="630" y="340" width="140" height="60" as="geometry" />
        </mxCell>
        <mxCell id="x6G5JrCz9jpSUVPoRQnr-17" value="" style="endArrow=classic;html=1;rounded=0;entryX=0.5;entryY=0;entryDx=0;entryDy=0;exitX=0.5;exitY=1;exitDx=0;exitDy=0;" parent="1" source="x6G5JrCz9jpSUVPoRQnr-15" target="x6G5JrCz9jpSUVPoRQnr-16" edge="1">
          <mxGeometry width="50" height="50" relative="1" as="geometry">
            <mxPoint x="720" y="270" as="sourcePoint" />
            <mxPoint x="738" y="300" as="targetPoint" />
          </mxGeometry>
        </mxCell>
        <mxCell id="x6G5JrCz9jpSUVPoRQnr-18" value="" style="endArrow=classic;html=1;rounded=0;exitX=0;exitY=0.5;exitDx=0;exitDy=0;entryX=1;entryY=0.5;entryDx=0;entryDy=0;" parent="1" source="x6G5JrCz9jpSUVPoRQnr-16" target="x6G5JrCz9jpSUVPoRQnr-20" edge="1">
          <mxGeometry width="50" height="50" relative="1" as="geometry">
            <mxPoint x="600" y="490" as="sourcePoint" />
            <mxPoint x="650" y="440" as="targetPoint" />
          </mxGeometry>
        </mxCell>
        <mxCell id="x6G5JrCz9jpSUVPoRQnr-19" value="OS finalizada/instalação concluida com sucesso" style="text;html=1;align=center;verticalAlign=middle;whiteSpace=wrap;rounded=0;" parent="1" vertex="1">
          <mxGeometry x="400" y="323" width="150" height="40" as="geometry" />
        </mxCell>
        <mxCell id="x6G5JrCz9jpSUVPoRQnr-20" value="&amp;lt;MS&amp;gt;&lt;br&gt;CALLBACK SOLAR" style="rounded=1;whiteSpace=wrap;html=1;fillColor=#f8cecc;strokeColor=#b85450;" parent="1" vertex="1">
          <mxGeometry x="320" y="250" width="120" height="60" as="geometry" />
        </mxCell>
        <mxCell id="x6G5JrCz9jpSUVPoRQnr-21" value="PROPOSTA" style="rounded=0;whiteSpace=wrap;html=1;" parent="1" vertex="1">
          <mxGeometry x="185" y="170" width="90" height="40" as="geometry" />
        </mxCell>
        <mxCell id="x6G5JrCz9jpSUVPoRQnr-22" value="CONTRATO MOBILE" style="rounded=0;whiteSpace=wrap;html=1;" parent="1" vertex="1">
          <mxGeometry x="185" y="230" width="90" height="40" as="geometry" />
        </mxCell>
        <mxCell id="x6G5JrCz9jpSUVPoRQnr-23" value="" style="endArrow=classic;html=1;rounded=0;entryX=1;entryY=0.5;entryDx=0;entryDy=0;exitX=0;exitY=0.5;exitDx=0;exitDy=0;" parent="1" source="x6G5JrCz9jpSUVPoRQnr-20" target="x6G5JrCz9jpSUVPoRQnr-22" edge="1">
          <mxGeometry width="50" height="50" relative="1" as="geometry">
            <mxPoint x="230" y="330" as="sourcePoint" />
            <mxPoint x="280" y="280" as="targetPoint" />
          </mxGeometry>
        </mxCell>
        <mxCell id="x6G5JrCz9jpSUVPoRQnr-24" value="Inicia Faturamento" style="text;html=1;align=center;verticalAlign=middle;whiteSpace=wrap;rounded=0;" parent="1" vertex="1">
          <mxGeometry x="130" y="290" width="90" height="30" as="geometry" />
        </mxCell>
        <mxCell id="x6G5JrCz9jpSUVPoRQnr-25" value="CONCILIAÇÃO FATURAMENTO NETSMS X ENG X MOBILE" style="rounded=1;whiteSpace=wrap;html=1;" parent="1" vertex="1">
          <mxGeometry x="200" y="400" width="120" height="60" as="geometry" />
        </mxCell>
        <mxCell id="x6G5JrCz9jpSUVPoRQnr-26" value="" style="endArrow=none;dashed=1;html=1;dashPattern=1 3;strokeWidth=2;rounded=0;exitX=0;exitY=0.25;exitDx=0;exitDy=0;" parent="1" source="x6G5JrCz9jpSUVPoRQnr-25" target="x6G5JrCz9jpSUVPoRQnr-12" edge="1">
          <mxGeometry width="50" height="50" relative="1" as="geometry">
            <mxPoint x="70" y="410" as="sourcePoint" />
            <mxPoint x="120" y="360" as="targetPoint" />
          </mxGeometry>
        </mxCell>
        <mxCell id="x6G5JrCz9jpSUVPoRQnr-27" value="" style="endArrow=none;dashed=1;html=1;dashPattern=1 3;strokeWidth=2;rounded=0;entryX=0;entryY=1;entryDx=0;entryDy=-15;entryPerimeter=0;exitX=1.006;exitY=0.378;exitDx=0;exitDy=0;exitPerimeter=0;" parent="1" source="x6G5JrCz9jpSUVPoRQnr-25" target="x6G5JrCz9jpSUVPoRQnr-4" edge="1">
          <mxGeometry width="50" height="50" relative="1" as="geometry">
            <mxPoint x="380" y="450" as="sourcePoint" />
            <mxPoint x="550" y="390" as="targetPoint" />
          </mxGeometry>
        </mxCell>
      </root>
    </mxGraphModel>
  </diagram>
  <diagram id="7eBtjbVnMDkNAdSwD5SP" name="BASE">
    <mxGraphModel dx="1869" dy="1696" grid="1" gridSize="10" guides="1" tooltips="1" connect="1" arrows="1" fold="1" page="1" pageScale="1" pageWidth="827" pageHeight="1169" math="0" shadow="0">
      <root>
        <mxCell id="0" />
        <mxCell id="1" parent="0" />
        <mxCell id="B7XPSTDVbIxk6KTQtbu4-1" value="SOLAR VENDA BASE&amp;nbsp;" style="rounded=1;whiteSpace=wrap;html=1;" parent="1" vertex="1">
          <mxGeometry x="-800" y="-1010" width="120" height="60" as="geometry" />
        </mxCell>
        <mxCell id="B7XPSTDVbIxk6KTQtbu4-2" value="&lt;b&gt;JORNADA BASE: &lt;/b&gt;Adesão, Mudança de pacote, retenção,etc." style="text;html=1;align=left;verticalAlign=middle;whiteSpace=wrap;rounded=0;" parent="1" vertex="1">
          <mxGeometry x="-810" y="-1160" width="580" height="30" as="geometry" />
        </mxCell>
        <mxCell id="B7XPSTDVbIxk6KTQtbu4-3" value="OM" style="rounded=1;whiteSpace=wrap;html=1;verticalAlign=top;" parent="1" vertex="1">
          <mxGeometry x="-650" y="-980" width="120" height="160" as="geometry" />
        </mxCell>
        <mxCell id="B7XPSTDVbIxk6KTQtbu4-4" value="NETSALES" style="shape=cylinder3;whiteSpace=wrap;html=1;boundedLbl=1;backgroundOutline=1;size=15;verticalAlign=top;" parent="1" vertex="1">
          <mxGeometry x="-260" y="-1040" width="220" height="340" as="geometry" />
        </mxCell>
        <mxCell id="B7XPSTDVbIxk6KTQtbu4-5" value="&amp;lt;MS&amp;gt;&lt;br&gt;BASE" style="rounded=1;whiteSpace=wrap;html=1;fillColor=#fff2cc;strokeColor=#d6b656;" parent="1" vertex="1">
          <mxGeometry x="-470" y="-1020" width="176" height="60" as="geometry" />
        </mxCell>
        <mxCell id="B7XPSTDVbIxk6KTQtbu4-6" value="" style="endArrow=classic;html=1;rounded=0;entryX=0;entryY=0.5;entryDx=0;entryDy=0;exitX=1;exitY=0.5;exitDx=0;exitDy=0;" parent="1" source="B7XPSTDVbIxk6KTQtbu4-5" target="B7XPSTDVbIxk6KTQtbu4-10" edge="1">
          <mxGeometry width="50" height="50" relative="1" as="geometry">
            <mxPoint x="-340" y="-890" as="sourcePoint" />
            <mxPoint x="-290" y="-940" as="targetPoint" />
          </mxGeometry>
        </mxCell>
        <mxCell id="B7XPSTDVbIxk6KTQtbu4-7" value="" style="endArrow=classic;html=1;rounded=0;entryX=0;entryY=0.5;entryDx=0;entryDy=0;exitX=1;exitY=0.25;exitDx=0;exitDy=0;" parent="1" source="B7XPSTDVbIxk6KTQtbu4-21" target="B7XPSTDVbIxk6KTQtbu4-5" edge="1">
          <mxGeometry width="50" height="50" relative="1" as="geometry">
            <mxPoint x="-500" y="-900" as="sourcePoint" />
            <mxPoint x="-450" y="-950" as="targetPoint" />
            <Array as="points">
              <mxPoint x="-510" y="-990" />
            </Array>
          </mxGeometry>
        </mxCell>
        <mxCell id="B7XPSTDVbIxk6KTQtbu4-8" value="" style="endArrow=classic;html=1;rounded=0;entryX=0.5;entryY=0;entryDx=0;entryDy=0;exitX=1;exitY=0.5;exitDx=0;exitDy=0;" parent="1" source="B7XPSTDVbIxk6KTQtbu4-1" target="B7XPSTDVbIxk6KTQtbu4-21" edge="1">
          <mxGeometry width="50" height="50" relative="1" as="geometry">
            <mxPoint x="-780" y="-800" as="sourcePoint" />
            <mxPoint x="-730" y="-850" as="targetPoint" />
          </mxGeometry>
        </mxCell>
        <mxCell id="B7XPSTDVbIxk6KTQtbu4-9" value="CONTRATO" style="swimlane;fontStyle=0;childLayout=stackLayout;horizontal=1;startSize=30;horizontalStack=0;resizeParent=1;resizeParentMax=0;resizeLast=0;collapsible=1;marginBottom=0;whiteSpace=wrap;html=1;" parent="1" vertex="1">
          <mxGeometry x="-230" y="-970" width="140" height="90" as="geometry" />
        </mxCell>
        <mxCell id="B7XPSTDVbIxk6KTQtbu4-10" value="NUM CONTRATO" style="text;strokeColor=none;fillColor=none;align=left;verticalAlign=middle;spacingLeft=4;spacingRight=4;overflow=hidden;points=[[0,0.5],[1,0.5]];portConstraint=eastwest;rotatable=0;whiteSpace=wrap;html=1;" parent="B7XPSTDVbIxk6KTQtbu4-9" vertex="1">
          <mxGeometry y="30" width="140" height="30" as="geometry" />
        </mxCell>
        <mxCell id="B7XPSTDVbIxk6KTQtbu4-11" value="FLAG NOBILL = TRUE/FALSE" style="text;strokeColor=none;fillColor=none;align=left;verticalAlign=middle;spacingLeft=4;spacingRight=4;overflow=hidden;points=[[0,0.5],[1,0.5]];portConstraint=eastwest;rotatable=0;whiteSpace=wrap;html=1;" parent="B7XPSTDVbIxk6KTQtbu4-9" vertex="1">
          <mxGeometry y="60" width="140" height="30" as="geometry" />
        </mxCell>
        <mxCell id="B7XPSTDVbIxk6KTQtbu4-12" value="MOBILE" style="rounded=1;whiteSpace=wrap;html=1;" parent="1" vertex="1">
          <mxGeometry x="-810" y="-860" width="120" height="60" as="geometry" />
        </mxCell>
        <mxCell id="B7XPSTDVbIxk6KTQtbu4-13" value="" style="endArrow=classic;html=1;rounded=0;entryX=0.5;entryY=0;entryDx=0;entryDy=0;exitX=0.514;exitY=1;exitDx=0;exitDy=0;exitPerimeter=0;" parent="1" source="B7XPSTDVbIxk6KTQtbu4-11" target="B7XPSTDVbIxk6KTQtbu4-15" edge="1">
          <mxGeometry width="50" height="50" relative="1" as="geometry">
            <mxPoint x="-360" y="-760" as="sourcePoint" />
            <mxPoint x="-310" y="-810" as="targetPoint" />
          </mxGeometry>
        </mxCell>
        <mxCell id="B7XPSTDVbIxk6KTQtbu4-14" value="" style="endArrow=classic;html=1;rounded=0;entryX=1;entryY=0.5;entryDx=0;entryDy=0;exitX=0;exitY=0.5;exitDx=0;exitDy=0;" parent="1" source="B7XPSTDVbIxk6KTQtbu4-22" target="B7XPSTDVbIxk6KTQtbu4-12" edge="1">
          <mxGeometry width="50" height="50" relative="1" as="geometry">
            <mxPoint x="-470" y="-713.5" as="sourcePoint" />
            <mxPoint x="-410" y="-730" as="targetPoint" />
          </mxGeometry>
        </mxCell>
        <mxCell id="B7XPSTDVbIxk6KTQtbu4-15" value="SOLIC" style="swimlane;fontStyle=0;childLayout=stackLayout;horizontal=1;startSize=30;horizontalStack=0;resizeParent=1;resizeParentMax=0;resizeLast=0;collapsible=1;marginBottom=0;whiteSpace=wrap;html=1;" parent="1" vertex="1">
          <mxGeometry x="-210" y="-850" width="140" height="60" as="geometry" />
        </mxCell>
        <mxCell id="B7XPSTDVbIxk6KTQtbu4-16" value="OS" style="swimlane;fontStyle=0;childLayout=stackLayout;horizontal=1;startSize=30;horizontalStack=0;resizeParent=1;resizeParentMax=0;resizeLast=0;collapsible=1;marginBottom=0;whiteSpace=wrap;html=1;" parent="1" vertex="1">
          <mxGeometry x="-190" y="-770" width="140" height="60" as="geometry" />
        </mxCell>
        <mxCell id="B7XPSTDVbIxk6KTQtbu4-17" value="" style="endArrow=classic;html=1;rounded=0;entryX=0.5;entryY=0;entryDx=0;entryDy=0;exitX=0.5;exitY=1;exitDx=0;exitDy=0;" parent="1" source="B7XPSTDVbIxk6KTQtbu4-15" target="B7XPSTDVbIxk6KTQtbu4-16" edge="1">
          <mxGeometry width="50" height="50" relative="1" as="geometry">
            <mxPoint x="-100" y="-840" as="sourcePoint" />
            <mxPoint x="-82" y="-810" as="targetPoint" />
          </mxGeometry>
        </mxCell>
        <mxCell id="B7XPSTDVbIxk6KTQtbu4-18" value="" style="endArrow=classic;html=1;rounded=0;exitX=0;exitY=0.5;exitDx=0;exitDy=0;entryX=1;entryY=0.5;entryDx=0;entryDy=0;" parent="1" source="B7XPSTDVbIxk6KTQtbu4-16" target="B7XPSTDVbIxk6KTQtbu4-20" edge="1">
          <mxGeometry width="50" height="50" relative="1" as="geometry">
            <mxPoint x="-220" y="-620" as="sourcePoint" />
            <mxPoint x="-170" y="-670" as="targetPoint" />
          </mxGeometry>
        </mxCell>
        <mxCell id="B7XPSTDVbIxk6KTQtbu4-20" value="&amp;lt;MS&amp;gt;&lt;br&gt;CALLBACK SOLAR" style="rounded=1;whiteSpace=wrap;html=1;fillColor=#f8cecc;strokeColor=#b85450;" parent="1" vertex="1">
          <mxGeometry x="-500" y="-860" width="120" height="60" as="geometry" />
        </mxCell>
        <mxCell id="B7XPSTDVbIxk6KTQtbu4-21" value="PROPOSTA" style="rounded=0;whiteSpace=wrap;html=1;" parent="1" vertex="1">
          <mxGeometry x="-635" y="-940" width="90" height="40" as="geometry" />
        </mxCell>
        <mxCell id="B7XPSTDVbIxk6KTQtbu4-22" value="CONTRATO MOBILE" style="rounded=0;whiteSpace=wrap;html=1;" parent="1" vertex="1">
          <mxGeometry x="-635" y="-880" width="90" height="40" as="geometry" />
        </mxCell>
        <mxCell id="B7XPSTDVbIxk6KTQtbu4-23" value="" style="endArrow=classic;html=1;rounded=0;entryX=1;entryY=0.5;entryDx=0;entryDy=0;exitX=0;exitY=0.5;exitDx=0;exitDy=0;fillColor=#f8cecc;strokeColor=#b85450;strokeWidth=3;" parent="1" source="B7XPSTDVbIxk6KTQtbu4-20" target="B7XPSTDVbIxk6KTQtbu4-22" edge="1">
          <mxGeometry width="50" height="50" relative="1" as="geometry">
            <mxPoint x="-590" y="-780" as="sourcePoint" />
            <mxPoint x="-540" y="-830" as="targetPoint" />
          </mxGeometry>
        </mxCell>
      </root>
    </mxGraphModel>
  </diagram>
  <diagram id="QJtMrGekQY41fCJNpznj" name="CANCELAMENTO">
    <mxGraphModel dx="1042" dy="527" grid="1" gridSize="10" guides="1" tooltips="1" connect="1" arrows="1" fold="1" page="1" pageScale="1" pageWidth="827" pageHeight="1169" math="0" shadow="0">
      <root>
        <mxCell id="0" />
        <mxCell id="1" parent="0" />
        <mxCell id="qWbPWgoqJ_9wPtei29Lh-1" value="SOLAR" style="rounded=1;whiteSpace=wrap;html=1;" parent="1" vertex="1">
          <mxGeometry x="30" y="100" width="120" height="60" as="geometry" />
        </mxCell>
        <mxCell id="qWbPWgoqJ_9wPtei29Lh-2" value="&lt;b&gt;JORNADA BASE: &lt;/b&gt;Cancelamento" style="text;html=1;align=left;verticalAlign=middle;whiteSpace=wrap;rounded=0;" parent="1" vertex="1">
          <mxGeometry x="15" y="10" width="270" height="30" as="geometry" />
        </mxCell>
        <mxCell id="qWbPWgoqJ_9wPtei29Lh-3" value="OM" style="rounded=1;whiteSpace=wrap;html=1;verticalAlign=top;" parent="1" vertex="1">
          <mxGeometry x="180" y="130" width="120" height="160" as="geometry" />
        </mxCell>
        <mxCell id="qWbPWgoqJ_9wPtei29Lh-4" value="NETSALES" style="shape=cylinder3;whiteSpace=wrap;html=1;boundedLbl=1;backgroundOutline=1;size=15;verticalAlign=top;" parent="1" vertex="1">
          <mxGeometry x="570" y="70" width="220" height="340" as="geometry" />
        </mxCell>
        <mxCell id="qWbPWgoqJ_9wPtei29Lh-5" value="&amp;lt;MS&amp;gt;&lt;br&gt;CANCELAMENTO" style="rounded=1;whiteSpace=wrap;html=1;fillColor=#fff2cc;strokeColor=#d6b656;" parent="1" vertex="1">
          <mxGeometry x="340" y="90" width="176" height="60" as="geometry" />
        </mxCell>
        <mxCell id="qWbPWgoqJ_9wPtei29Lh-6" value="" style="endArrow=classic;html=1;rounded=0;entryX=0;entryY=0.5;entryDx=0;entryDy=0;exitX=1;exitY=0.5;exitDx=0;exitDy=0;" parent="1" source="qWbPWgoqJ_9wPtei29Lh-5" target="qWbPWgoqJ_9wPtei29Lh-10" edge="1">
          <mxGeometry width="50" height="50" relative="1" as="geometry">
            <mxPoint x="490" y="220" as="sourcePoint" />
            <mxPoint x="540" y="170" as="targetPoint" />
          </mxGeometry>
        </mxCell>
        <mxCell id="qWbPWgoqJ_9wPtei29Lh-7" value="" style="endArrow=classic;html=1;rounded=0;entryX=0;entryY=0.5;entryDx=0;entryDy=0;exitX=1;exitY=0.25;exitDx=0;exitDy=0;" parent="1" source="qWbPWgoqJ_9wPtei29Lh-20" target="qWbPWgoqJ_9wPtei29Lh-5" edge="1">
          <mxGeometry width="50" height="50" relative="1" as="geometry">
            <mxPoint x="330" y="210" as="sourcePoint" />
            <mxPoint x="380" y="160" as="targetPoint" />
            <Array as="points">
              <mxPoint x="320" y="120" />
            </Array>
          </mxGeometry>
        </mxCell>
        <mxCell id="qWbPWgoqJ_9wPtei29Lh-8" value="" style="endArrow=classic;html=1;rounded=0;entryX=0.5;entryY=0;entryDx=0;entryDy=0;exitX=1;exitY=0.5;exitDx=0;exitDy=0;" parent="1" source="qWbPWgoqJ_9wPtei29Lh-1" target="qWbPWgoqJ_9wPtei29Lh-20" edge="1">
          <mxGeometry width="50" height="50" relative="1" as="geometry">
            <mxPoint x="50" y="310" as="sourcePoint" />
            <mxPoint x="100" y="260" as="targetPoint" />
          </mxGeometry>
        </mxCell>
        <mxCell id="qWbPWgoqJ_9wPtei29Lh-9" value="CONTRATO" style="swimlane;fontStyle=0;childLayout=stackLayout;horizontal=1;startSize=30;horizontalStack=0;resizeParent=1;resizeParentMax=0;resizeLast=0;collapsible=1;marginBottom=0;whiteSpace=wrap;html=1;" parent="1" vertex="1">
          <mxGeometry x="600" y="140" width="140" height="90" as="geometry" />
        </mxCell>
        <mxCell id="qWbPWgoqJ_9wPtei29Lh-10" value="NUM CONTRATO" style="text;strokeColor=none;fillColor=none;align=left;verticalAlign=middle;spacingLeft=4;spacingRight=4;overflow=hidden;points=[[0,0.5],[1,0.5]];portConstraint=eastwest;rotatable=0;whiteSpace=wrap;html=1;" parent="qWbPWgoqJ_9wPtei29Lh-9" vertex="1">
          <mxGeometry y="30" width="140" height="30" as="geometry" />
        </mxCell>
        <mxCell id="qWbPWgoqJ_9wPtei29Lh-11" value="FLAG NOBILL = TRUE" style="text;strokeColor=none;fillColor=none;align=left;verticalAlign=middle;spacingLeft=4;spacingRight=4;overflow=hidden;points=[[0,0.5],[1,0.5]];portConstraint=eastwest;rotatable=0;whiteSpace=wrap;html=1;" parent="qWbPWgoqJ_9wPtei29Lh-9" vertex="1">
          <mxGeometry y="60" width="140" height="30" as="geometry" />
        </mxCell>
        <mxCell id="qWbPWgoqJ_9wPtei29Lh-12" value="MOBILE" style="rounded=1;whiteSpace=wrap;html=1;" parent="1" vertex="1">
          <mxGeometry x="20" y="250" width="120" height="60" as="geometry" />
        </mxCell>
        <mxCell id="qWbPWgoqJ_9wPtei29Lh-13" value="" style="endArrow=classic;html=1;rounded=0;entryX=0.5;entryY=0;entryDx=0;entryDy=0;exitX=0.514;exitY=1;exitDx=0;exitDy=0;exitPerimeter=0;" parent="1" source="qWbPWgoqJ_9wPtei29Lh-11" target="qWbPWgoqJ_9wPtei29Lh-15" edge="1">
          <mxGeometry width="50" height="50" relative="1" as="geometry">
            <mxPoint x="470" y="350" as="sourcePoint" />
            <mxPoint x="520" y="300" as="targetPoint" />
          </mxGeometry>
        </mxCell>
        <mxCell id="qWbPWgoqJ_9wPtei29Lh-14" value="" style="endArrow=classic;html=1;rounded=0;entryX=1;entryY=0.5;entryDx=0;entryDy=0;exitX=0;exitY=0.5;exitDx=0;exitDy=0;" parent="1" source="qWbPWgoqJ_9wPtei29Lh-21" target="qWbPWgoqJ_9wPtei29Lh-12" edge="1">
          <mxGeometry width="50" height="50" relative="1" as="geometry">
            <mxPoint x="360" y="396.5" as="sourcePoint" />
            <mxPoint x="420" y="380" as="targetPoint" />
          </mxGeometry>
        </mxCell>
        <mxCell id="qWbPWgoqJ_9wPtei29Lh-15" value="SOLIC" style="swimlane;fontStyle=0;childLayout=stackLayout;horizontal=1;startSize=30;horizontalStack=0;resizeParent=1;resizeParentMax=0;resizeLast=0;collapsible=1;marginBottom=0;whiteSpace=wrap;html=1;" parent="1" vertex="1">
          <mxGeometry x="620" y="260" width="140" height="60" as="geometry" />
        </mxCell>
        <mxCell id="qWbPWgoqJ_9wPtei29Lh-16" value="OS" style="swimlane;fontStyle=0;childLayout=stackLayout;horizontal=1;startSize=30;horizontalStack=0;resizeParent=1;resizeParentMax=0;resizeLast=0;collapsible=1;marginBottom=0;whiteSpace=wrap;html=1;" parent="1" vertex="1">
          <mxGeometry x="640" y="340" width="140" height="60" as="geometry" />
        </mxCell>
        <mxCell id="qWbPWgoqJ_9wPtei29Lh-17" value="" style="endArrow=classic;html=1;rounded=0;entryX=0.5;entryY=0;entryDx=0;entryDy=0;exitX=0.5;exitY=1;exitDx=0;exitDy=0;" parent="1" source="qWbPWgoqJ_9wPtei29Lh-15" target="qWbPWgoqJ_9wPtei29Lh-16" edge="1">
          <mxGeometry width="50" height="50" relative="1" as="geometry">
            <mxPoint x="730" y="270" as="sourcePoint" />
            <mxPoint x="748" y="300" as="targetPoint" />
          </mxGeometry>
        </mxCell>
        <mxCell id="qWbPWgoqJ_9wPtei29Lh-18" value="" style="endArrow=classic;html=1;rounded=0;exitX=0;exitY=0.5;exitDx=0;exitDy=0;entryX=1;entryY=0.5;entryDx=0;entryDy=0;" parent="1" source="qWbPWgoqJ_9wPtei29Lh-16" target="qWbPWgoqJ_9wPtei29Lh-19" edge="1">
          <mxGeometry width="50" height="50" relative="1" as="geometry">
            <mxPoint x="610" y="490" as="sourcePoint" />
            <mxPoint x="660" y="440" as="targetPoint" />
          </mxGeometry>
        </mxCell>
        <mxCell id="qWbPWgoqJ_9wPtei29Lh-19" value="&amp;lt;MS&amp;gt;&lt;br&gt;CALLBACK SOLAR" style="rounded=1;whiteSpace=wrap;html=1;fillColor=#f8cecc;strokeColor=#b85450;" parent="1" vertex="1">
          <mxGeometry x="330" y="250" width="120" height="60" as="geometry" />
        </mxCell>
        <mxCell id="qWbPWgoqJ_9wPtei29Lh-20" value="CANCELAMENTO" style="rounded=0;whiteSpace=wrap;html=1;" parent="1" vertex="1">
          <mxGeometry x="195" y="170" width="90" height="40" as="geometry" />
        </mxCell>
        <mxCell id="qWbPWgoqJ_9wPtei29Lh-21" value="CONTRATO MOBILE" style="rounded=0;whiteSpace=wrap;html=1;" parent="1" vertex="1">
          <mxGeometry x="195" y="230" width="90" height="40" as="geometry" />
        </mxCell>
        <mxCell id="qWbPWgoqJ_9wPtei29Lh-22" value="" style="endArrow=classic;html=1;rounded=0;entryX=1;entryY=0.5;entryDx=0;entryDy=0;exitX=0;exitY=0.5;exitDx=0;exitDy=0;fillColor=#f8cecc;strokeColor=#000000;strokeWidth=1;" parent="1" source="qWbPWgoqJ_9wPtei29Lh-19" target="qWbPWgoqJ_9wPtei29Lh-21" edge="1">
          <mxGeometry width="50" height="50" relative="1" as="geometry">
            <mxPoint x="240" y="330" as="sourcePoint" />
            <mxPoint x="290" y="280" as="targetPoint" />
          </mxGeometry>
        </mxCell>
        <mxCell id="qWbPWgoqJ_9wPtei29Lh-23" value="" style="endArrow=classic;html=1;rounded=0;entryX=0;entryY=0.5;entryDx=0;entryDy=0;exitX=1;exitY=0.5;exitDx=0;exitDy=0;" parent="1" source="qWbPWgoqJ_9wPtei29Lh-5" target="qWbPWgoqJ_9wPtei29Lh-15" edge="1">
          <mxGeometry width="50" height="50" relative="1" as="geometry">
            <mxPoint x="550" y="140" as="sourcePoint" />
            <mxPoint x="614" y="205" as="targetPoint" />
          </mxGeometry>
        </mxCell>
      </root>
    </mxGraphModel>
  </diagram>
  <diagram id="JVhXUwgNSz-225PoC0TU" name="SUSPENSAO RESTAURACAO TEMPORARIA">
    <mxGraphModel dx="1042" dy="527" grid="1" gridSize="10" guides="1" tooltips="1" connect="1" arrows="1" fold="1" page="1" pageScale="1" pageWidth="827" pageHeight="1169" math="0" shadow="0">
      <root>
        <mxCell id="0" />
        <mxCell id="1" parent="0" />
        <mxCell id="gF4N-AvQs9-S6TVw3XKi-1" value="SOLAR" style="rounded=1;whiteSpace=wrap;html=1;" parent="1" vertex="1">
          <mxGeometry x="39" y="100" width="120" height="60" as="geometry" />
        </mxCell>
        <mxCell id="gF4N-AvQs9-S6TVw3XKi-2" value="&lt;b&gt;JORNADA BASE&lt;/b&gt;: Suspensão temporária / Restauração suspensão temporária (nível produto)" style="text;html=1;align=left;verticalAlign=middle;whiteSpace=wrap;rounded=0;" parent="1" vertex="1">
          <mxGeometry x="24" y="10" width="356" height="30" as="geometry" />
        </mxCell>
        <mxCell id="gF4N-AvQs9-S6TVw3XKi-3" value="OM" style="rounded=1;whiteSpace=wrap;html=1;verticalAlign=top;" parent="1" vertex="1">
          <mxGeometry x="189" y="130" width="120" height="160" as="geometry" />
        </mxCell>
        <mxCell id="gF4N-AvQs9-S6TVw3XKi-4" value="NETSALES" style="shape=cylinder3;whiteSpace=wrap;html=1;boundedLbl=1;backgroundOutline=1;size=15;verticalAlign=top;" parent="1" vertex="1">
          <mxGeometry x="579" y="70" width="220" height="340" as="geometry" />
        </mxCell>
        <mxCell id="gF4N-AvQs9-S6TVw3XKi-5" value="&amp;lt;MS&amp;gt;&lt;br&gt;SUSPENSAO/RESTAURACAO" style="rounded=1;whiteSpace=wrap;html=1;fillColor=#fff2cc;strokeColor=#d6b656;" parent="1" vertex="1">
          <mxGeometry x="349" y="90" width="176" height="60" as="geometry" />
        </mxCell>
        <mxCell id="gF4N-AvQs9-S6TVw3XKi-6" value="" style="endArrow=classic;html=1;rounded=0;entryX=0;entryY=0.5;entryDx=0;entryDy=0;exitX=1;exitY=0.5;exitDx=0;exitDy=0;" parent="1" source="gF4N-AvQs9-S6TVw3XKi-5" target="gF4N-AvQs9-S6TVw3XKi-10" edge="1">
          <mxGeometry width="50" height="50" relative="1" as="geometry">
            <mxPoint x="499" y="220" as="sourcePoint" />
            <mxPoint x="549" y="170" as="targetPoint" />
          </mxGeometry>
        </mxCell>
        <mxCell id="gF4N-AvQs9-S6TVw3XKi-7" value="" style="endArrow=classic;html=1;rounded=0;entryX=0;entryY=0.5;entryDx=0;entryDy=0;exitX=1;exitY=0.25;exitDx=0;exitDy=0;" parent="1" source="gF4N-AvQs9-S6TVw3XKi-20" target="gF4N-AvQs9-S6TVw3XKi-5" edge="1">
          <mxGeometry width="50" height="50" relative="1" as="geometry">
            <mxPoint x="339" y="210" as="sourcePoint" />
            <mxPoint x="389" y="160" as="targetPoint" />
            <Array as="points">
              <mxPoint x="329" y="120" />
            </Array>
          </mxGeometry>
        </mxCell>
        <mxCell id="gF4N-AvQs9-S6TVw3XKi-8" value="" style="endArrow=classic;html=1;rounded=0;entryX=0.5;entryY=0;entryDx=0;entryDy=0;exitX=1;exitY=0.5;exitDx=0;exitDy=0;" parent="1" source="gF4N-AvQs9-S6TVw3XKi-1" target="gF4N-AvQs9-S6TVw3XKi-20" edge="1">
          <mxGeometry width="50" height="50" relative="1" as="geometry">
            <mxPoint x="59" y="310" as="sourcePoint" />
            <mxPoint x="109" y="260" as="targetPoint" />
          </mxGeometry>
        </mxCell>
        <mxCell id="gF4N-AvQs9-S6TVw3XKi-9" value="CONTRATO" style="swimlane;fontStyle=0;childLayout=stackLayout;horizontal=1;startSize=30;horizontalStack=0;resizeParent=1;resizeParentMax=0;resizeLast=0;collapsible=1;marginBottom=0;whiteSpace=wrap;html=1;" parent="1" vertex="1">
          <mxGeometry x="609" y="140" width="140" height="90" as="geometry" />
        </mxCell>
        <mxCell id="gF4N-AvQs9-S6TVw3XKi-10" value="NUM CONTRATO" style="text;strokeColor=none;fillColor=none;align=left;verticalAlign=middle;spacingLeft=4;spacingRight=4;overflow=hidden;points=[[0,0.5],[1,0.5]];portConstraint=eastwest;rotatable=0;whiteSpace=wrap;html=1;" parent="gF4N-AvQs9-S6TVw3XKi-9" vertex="1">
          <mxGeometry y="30" width="140" height="30" as="geometry" />
        </mxCell>
        <mxCell id="gF4N-AvQs9-S6TVw3XKi-11" value="FLAG NOBILL = TRUE" style="text;strokeColor=none;fillColor=none;align=left;verticalAlign=middle;spacingLeft=4;spacingRight=4;overflow=hidden;points=[[0,0.5],[1,0.5]];portConstraint=eastwest;rotatable=0;whiteSpace=wrap;html=1;" parent="gF4N-AvQs9-S6TVw3XKi-9" vertex="1">
          <mxGeometry y="60" width="140" height="30" as="geometry" />
        </mxCell>
        <mxCell id="gF4N-AvQs9-S6TVw3XKi-12" value="MOBILE" style="rounded=1;whiteSpace=wrap;html=1;" parent="1" vertex="1">
          <mxGeometry x="29" y="250" width="120" height="60" as="geometry" />
        </mxCell>
        <mxCell id="gF4N-AvQs9-S6TVw3XKi-13" value="" style="endArrow=classic;html=1;rounded=0;entryX=0.5;entryY=0;entryDx=0;entryDy=0;exitX=0.514;exitY=1;exitDx=0;exitDy=0;exitPerimeter=0;" parent="1" source="gF4N-AvQs9-S6TVw3XKi-11" target="gF4N-AvQs9-S6TVw3XKi-15" edge="1">
          <mxGeometry width="50" height="50" relative="1" as="geometry">
            <mxPoint x="479" y="350" as="sourcePoint" />
            <mxPoint x="529" y="300" as="targetPoint" />
          </mxGeometry>
        </mxCell>
        <mxCell id="gF4N-AvQs9-S6TVw3XKi-14" value="" style="endArrow=classic;html=1;rounded=0;entryX=1;entryY=0.5;entryDx=0;entryDy=0;exitX=0;exitY=0.5;exitDx=0;exitDy=0;" parent="1" source="gF4N-AvQs9-S6TVw3XKi-21" target="gF4N-AvQs9-S6TVw3XKi-12" edge="1">
          <mxGeometry width="50" height="50" relative="1" as="geometry">
            <mxPoint x="369" y="396.5" as="sourcePoint" />
            <mxPoint x="429" y="380" as="targetPoint" />
          </mxGeometry>
        </mxCell>
        <mxCell id="gF4N-AvQs9-S6TVw3XKi-15" value="SOLIC" style="swimlane;fontStyle=0;childLayout=stackLayout;horizontal=1;startSize=30;horizontalStack=0;resizeParent=1;resizeParentMax=0;resizeLast=0;collapsible=1;marginBottom=0;whiteSpace=wrap;html=1;" parent="1" vertex="1">
          <mxGeometry x="629" y="260" width="140" height="60" as="geometry" />
        </mxCell>
        <mxCell id="gF4N-AvQs9-S6TVw3XKi-16" value="OS" style="swimlane;fontStyle=0;childLayout=stackLayout;horizontal=1;startSize=30;horizontalStack=0;resizeParent=1;resizeParentMax=0;resizeLast=0;collapsible=1;marginBottom=0;whiteSpace=wrap;html=1;" parent="1" vertex="1">
          <mxGeometry x="649" y="340" width="140" height="60" as="geometry" />
        </mxCell>
        <mxCell id="gF4N-AvQs9-S6TVw3XKi-17" value="" style="endArrow=classic;html=1;rounded=0;entryX=0.5;entryY=0;entryDx=0;entryDy=0;exitX=0.5;exitY=1;exitDx=0;exitDy=0;" parent="1" source="gF4N-AvQs9-S6TVw3XKi-15" target="gF4N-AvQs9-S6TVw3XKi-16" edge="1">
          <mxGeometry width="50" height="50" relative="1" as="geometry">
            <mxPoint x="739" y="270" as="sourcePoint" />
            <mxPoint x="757" y="300" as="targetPoint" />
          </mxGeometry>
        </mxCell>
        <mxCell id="gF4N-AvQs9-S6TVw3XKi-18" value="" style="endArrow=classic;html=1;rounded=0;exitX=0;exitY=0.5;exitDx=0;exitDy=0;entryX=1;entryY=0.5;entryDx=0;entryDy=0;" parent="1" source="gF4N-AvQs9-S6TVw3XKi-16" target="gF4N-AvQs9-S6TVw3XKi-19" edge="1">
          <mxGeometry width="50" height="50" relative="1" as="geometry">
            <mxPoint x="619" y="490" as="sourcePoint" />
            <mxPoint x="669" y="440" as="targetPoint" />
          </mxGeometry>
        </mxCell>
        <mxCell id="gF4N-AvQs9-S6TVw3XKi-19" value="&amp;lt;MS&amp;gt;&lt;br&gt;CALLBACK SOLAR" style="rounded=1;whiteSpace=wrap;html=1;fillColor=#f8cecc;strokeColor=#b85450;" parent="1" vertex="1">
          <mxGeometry x="339" y="250" width="120" height="60" as="geometry" />
        </mxCell>
        <mxCell id="gF4N-AvQs9-S6TVw3XKi-20" value="SUSPENSAO" style="rounded=0;whiteSpace=wrap;html=1;" parent="1" vertex="1">
          <mxGeometry x="204" y="170" width="90" height="40" as="geometry" />
        </mxCell>
        <mxCell id="gF4N-AvQs9-S6TVw3XKi-21" value="CONTRATO MOBILE" style="rounded=0;whiteSpace=wrap;html=1;" parent="1" vertex="1">
          <mxGeometry x="204" y="230" width="90" height="40" as="geometry" />
        </mxCell>
        <mxCell id="gF4N-AvQs9-S6TVw3XKi-22" value="" style="endArrow=classic;html=1;rounded=0;entryX=1;entryY=0.5;entryDx=0;entryDy=0;exitX=0;exitY=0.5;exitDx=0;exitDy=0;fillColor=#f8cecc;strokeColor=#000000;strokeWidth=1;" parent="1" source="gF4N-AvQs9-S6TVw3XKi-19" target="gF4N-AvQs9-S6TVw3XKi-21" edge="1">
          <mxGeometry width="50" height="50" relative="1" as="geometry">
            <mxPoint x="249" y="330" as="sourcePoint" />
            <mxPoint x="299" y="280" as="targetPoint" />
          </mxGeometry>
        </mxCell>
        <mxCell id="gF4N-AvQs9-S6TVw3XKi-23" value="" style="endArrow=classic;html=1;rounded=0;entryX=0;entryY=0.5;entryDx=0;entryDy=0;exitX=1;exitY=0.5;exitDx=0;exitDy=0;" parent="1" source="gF4N-AvQs9-S6TVw3XKi-5" target="gF4N-AvQs9-S6TVw3XKi-15" edge="1">
          <mxGeometry width="50" height="50" relative="1" as="geometry">
            <mxPoint x="559" y="140" as="sourcePoint" />
            <mxPoint x="623" y="205" as="targetPoint" />
          </mxGeometry>
        </mxCell>
        <mxCell id="gF4N-AvQs9-S6TVw3XKi-24" value="ALTERA O CONTRATO PARA COLOCAR NO LUGAR O PRODUTO SUSPENSO (MUDANÇA DE PACOTE)" style="text;html=1;align=center;verticalAlign=middle;whiteSpace=wrap;rounded=0;" parent="1" vertex="1">
          <mxGeometry x="479" width="170" height="70" as="geometry" />
        </mxCell>
        <mxCell id="gF4N-AvQs9-S6TVw3XKi-25" value="" style="endArrow=none;dashed=1;html=1;dashPattern=1 3;strokeWidth=2;rounded=0;entryX=0.5;entryY=1;entryDx=0;entryDy=0;" parent="1" target="gF4N-AvQs9-S6TVw3XKi-24" edge="1">
          <mxGeometry width="50" height="50" relative="1" as="geometry">
            <mxPoint x="529" y="120" as="sourcePoint" />
            <mxPoint x="569" y="110" as="targetPoint" />
          </mxGeometry>
        </mxCell>
      </root>
    </mxGraphModel>
  </diagram>
  <diagram id="rP6ZYY8iaP43yP-gz6yz" name="ATENDIMENTO SOLAR">
    <mxGraphModel dx="1042" dy="527" grid="1" gridSize="10" guides="1" tooltips="1" connect="1" arrows="1" fold="1" page="1" pageScale="1" pageWidth="827" pageHeight="1169" math="0" shadow="0">
      <root>
        <mxCell id="0" />
        <mxCell id="1" parent="0" />
        <mxCell id="czVWhgNWtRjSMdm31_TA-1" value="SOLAR" style="rounded=1;whiteSpace=wrap;html=1;" vertex="1" parent="1">
          <mxGeometry x="35" y="110" width="120" height="60" as="geometry" />
        </mxCell>
        <mxCell id="czVWhgNWtRjSMdm31_TA-2" value="&lt;b&gt;JORNADA ATENDIMENTO&lt;/b&gt;: jornada&amp;nbsp;&lt;div&gt;- atendimento técnico como:&amp;nbsp;&lt;span style=&quot;background-color: transparent; color: light-dark(rgb(0, 0, 0), rgb(255, 255, 255));&quot;&gt;visita técnica, abertura de OS de serviço.&amp;nbsp;&lt;/span&gt;&lt;div&gt;- atendimento financeiro como: 2a via faturamento, mudança método de pagamento, endereço de faturamento,&amp;nbsp;&lt;span style=&quot;background-color: transparent; color: light-dark(rgb(0, 0, 0), rgb(255, 255, 255));&quot;&gt;etc)&lt;/span&gt;&lt;/div&gt;&lt;/div&gt;" style="text;html=1;align=left;verticalAlign=middle;whiteSpace=wrap;rounded=0;" vertex="1" parent="1">
          <mxGeometry x="20" y="20" width="670" height="30" as="geometry" />
        </mxCell>
        <mxCell id="czVWhgNWtRjSMdm31_TA-3" value="OM" style="rounded=1;whiteSpace=wrap;html=1;verticalAlign=top;" vertex="1" parent="1">
          <mxGeometry x="185" y="140" width="120" height="160" as="geometry" />
        </mxCell>
        <mxCell id="czVWhgNWtRjSMdm31_TA-4" value="NETSALES" style="shape=cylinder3;whiteSpace=wrap;html=1;boundedLbl=1;backgroundOutline=1;size=15;verticalAlign=top;" vertex="1" parent="1">
          <mxGeometry x="575" y="80" width="220" height="340" as="geometry" />
        </mxCell>
        <mxCell id="czVWhgNWtRjSMdm31_TA-5" value="&amp;lt;MS&amp;gt;&lt;br&gt;ATENDIMENTO (ALTERAÇÃO DADOS FINANCEIROS, ABERTURA SOLIC, ETC)" style="rounded=1;whiteSpace=wrap;html=1;fillColor=#fff2cc;strokeColor=#d6b656;" vertex="1" parent="1">
          <mxGeometry x="345" y="100" width="176" height="60" as="geometry" />
        </mxCell>
        <mxCell id="czVWhgNWtRjSMdm31_TA-6" value="" style="endArrow=classic;html=1;rounded=0;entryX=0;entryY=0.5;entryDx=0;entryDy=0;exitX=1;exitY=0.5;exitDx=0;exitDy=0;" edge="1" parent="1" source="czVWhgNWtRjSMdm31_TA-5" target="czVWhgNWtRjSMdm31_TA-10">
          <mxGeometry width="50" height="50" relative="1" as="geometry">
            <mxPoint x="495" y="230" as="sourcePoint" />
            <mxPoint x="545" y="180" as="targetPoint" />
          </mxGeometry>
        </mxCell>
        <mxCell id="czVWhgNWtRjSMdm31_TA-7" value="" style="endArrow=classic;html=1;rounded=0;entryX=0;entryY=0.5;entryDx=0;entryDy=0;exitX=1;exitY=0.25;exitDx=0;exitDy=0;" edge="1" parent="1" source="czVWhgNWtRjSMdm31_TA-20" target="czVWhgNWtRjSMdm31_TA-5">
          <mxGeometry width="50" height="50" relative="1" as="geometry">
            <mxPoint x="335" y="220" as="sourcePoint" />
            <mxPoint x="385" y="170" as="targetPoint" />
            <Array as="points">
              <mxPoint x="325" y="130" />
            </Array>
          </mxGeometry>
        </mxCell>
        <mxCell id="czVWhgNWtRjSMdm31_TA-8" value="" style="endArrow=classic;html=1;rounded=0;entryX=0.5;entryY=0;entryDx=0;entryDy=0;exitX=1;exitY=0.5;exitDx=0;exitDy=0;" edge="1" parent="1" source="czVWhgNWtRjSMdm31_TA-1" target="czVWhgNWtRjSMdm31_TA-20">
          <mxGeometry width="50" height="50" relative="1" as="geometry">
            <mxPoint x="55" y="320" as="sourcePoint" />
            <mxPoint x="105" y="270" as="targetPoint" />
          </mxGeometry>
        </mxCell>
        <mxCell id="czVWhgNWtRjSMdm31_TA-9" value="CONTRATO" style="swimlane;fontStyle=0;childLayout=stackLayout;horizontal=1;startSize=30;horizontalStack=0;resizeParent=1;resizeParentMax=0;resizeLast=0;collapsible=1;marginBottom=0;whiteSpace=wrap;html=1;" vertex="1" parent="1">
          <mxGeometry x="605" y="150" width="140" height="90" as="geometry" />
        </mxCell>
        <mxCell id="czVWhgNWtRjSMdm31_TA-10" value="NUM CONTRATO" style="text;strokeColor=none;fillColor=none;align=left;verticalAlign=middle;spacingLeft=4;spacingRight=4;overflow=hidden;points=[[0,0.5],[1,0.5]];portConstraint=eastwest;rotatable=0;whiteSpace=wrap;html=1;" vertex="1" parent="czVWhgNWtRjSMdm31_TA-9">
          <mxGeometry y="30" width="140" height="30" as="geometry" />
        </mxCell>
        <mxCell id="czVWhgNWtRjSMdm31_TA-11" value="FLAG NOBILL = TRUE" style="text;strokeColor=none;fillColor=none;align=left;verticalAlign=middle;spacingLeft=4;spacingRight=4;overflow=hidden;points=[[0,0.5],[1,0.5]];portConstraint=eastwest;rotatable=0;whiteSpace=wrap;html=1;" vertex="1" parent="czVWhgNWtRjSMdm31_TA-9">
          <mxGeometry y="60" width="140" height="30" as="geometry" />
        </mxCell>
        <mxCell id="czVWhgNWtRjSMdm31_TA-12" value="MOBILE" style="rounded=1;whiteSpace=wrap;html=1;" vertex="1" parent="1">
          <mxGeometry x="25" y="260" width="120" height="60" as="geometry" />
        </mxCell>
        <mxCell id="czVWhgNWtRjSMdm31_TA-13" value="" style="endArrow=classic;html=1;rounded=0;entryX=0.5;entryY=0;entryDx=0;entryDy=0;exitX=0.514;exitY=1;exitDx=0;exitDy=0;exitPerimeter=0;" edge="1" parent="1" source="czVWhgNWtRjSMdm31_TA-11" target="czVWhgNWtRjSMdm31_TA-15">
          <mxGeometry width="50" height="50" relative="1" as="geometry">
            <mxPoint x="475" y="360" as="sourcePoint" />
            <mxPoint x="525" y="310" as="targetPoint" />
          </mxGeometry>
        </mxCell>
        <mxCell id="czVWhgNWtRjSMdm31_TA-14" value="" style="endArrow=classic;html=1;rounded=0;entryX=1;entryY=0.5;entryDx=0;entryDy=0;exitX=0;exitY=0.5;exitDx=0;exitDy=0;" edge="1" parent="1" source="czVWhgNWtRjSMdm31_TA-21" target="czVWhgNWtRjSMdm31_TA-12">
          <mxGeometry width="50" height="50" relative="1" as="geometry">
            <mxPoint x="365" y="406.5" as="sourcePoint" />
            <mxPoint x="425" y="390" as="targetPoint" />
          </mxGeometry>
        </mxCell>
        <mxCell id="czVWhgNWtRjSMdm31_TA-15" value="SOLIC" style="swimlane;fontStyle=0;childLayout=stackLayout;horizontal=1;startSize=30;horizontalStack=0;resizeParent=1;resizeParentMax=0;resizeLast=0;collapsible=1;marginBottom=0;whiteSpace=wrap;html=1;" vertex="1" parent="1">
          <mxGeometry x="625" y="270" width="140" height="60" as="geometry" />
        </mxCell>
        <mxCell id="czVWhgNWtRjSMdm31_TA-16" value="OS" style="swimlane;fontStyle=0;childLayout=stackLayout;horizontal=1;startSize=30;horizontalStack=0;resizeParent=1;resizeParentMax=0;resizeLast=0;collapsible=1;marginBottom=0;whiteSpace=wrap;html=1;" vertex="1" parent="1">
          <mxGeometry x="645" y="350" width="140" height="60" as="geometry" />
        </mxCell>
        <mxCell id="czVWhgNWtRjSMdm31_TA-17" value="" style="endArrow=classic;html=1;rounded=0;entryX=0.5;entryY=0;entryDx=0;entryDy=0;exitX=0.5;exitY=1;exitDx=0;exitDy=0;" edge="1" parent="1" source="czVWhgNWtRjSMdm31_TA-15" target="czVWhgNWtRjSMdm31_TA-16">
          <mxGeometry width="50" height="50" relative="1" as="geometry">
            <mxPoint x="735" y="280" as="sourcePoint" />
            <mxPoint x="753" y="310" as="targetPoint" />
          </mxGeometry>
        </mxCell>
        <mxCell id="czVWhgNWtRjSMdm31_TA-18" value="" style="endArrow=classic;html=1;rounded=0;exitX=0;exitY=0.5;exitDx=0;exitDy=0;entryX=1;entryY=0.5;entryDx=0;entryDy=0;" edge="1" parent="1" source="czVWhgNWtRjSMdm31_TA-16" target="czVWhgNWtRjSMdm31_TA-19">
          <mxGeometry width="50" height="50" relative="1" as="geometry">
            <mxPoint x="615" y="500" as="sourcePoint" />
            <mxPoint x="665" y="450" as="targetPoint" />
          </mxGeometry>
        </mxCell>
        <mxCell id="czVWhgNWtRjSMdm31_TA-19" value="&amp;lt;MS&amp;gt;&lt;br&gt;CALLBACK SOLAR" style="rounded=1;whiteSpace=wrap;html=1;fillColor=#f8cecc;strokeColor=#b85450;" vertex="1" parent="1">
          <mxGeometry x="335" y="260" width="120" height="60" as="geometry" />
        </mxCell>
        <mxCell id="czVWhgNWtRjSMdm31_TA-20" value="SUSPENSAO" style="rounded=0;whiteSpace=wrap;html=1;" vertex="1" parent="1">
          <mxGeometry x="200" y="180" width="90" height="40" as="geometry" />
        </mxCell>
        <mxCell id="czVWhgNWtRjSMdm31_TA-21" value="CONTRATO MOBILE" style="rounded=0;whiteSpace=wrap;html=1;" vertex="1" parent="1">
          <mxGeometry x="200" y="240" width="90" height="40" as="geometry" />
        </mxCell>
        <mxCell id="czVWhgNWtRjSMdm31_TA-22" value="" style="endArrow=classic;html=1;rounded=0;entryX=1;entryY=0.5;entryDx=0;entryDy=0;exitX=0;exitY=0.5;exitDx=0;exitDy=0;fillColor=#f8cecc;strokeColor=#000000;strokeWidth=1;" edge="1" parent="1" source="czVWhgNWtRjSMdm31_TA-19" target="czVWhgNWtRjSMdm31_TA-21">
          <mxGeometry width="50" height="50" relative="1" as="geometry">
            <mxPoint x="245" y="340" as="sourcePoint" />
            <mxPoint x="295" y="290" as="targetPoint" />
          </mxGeometry>
        </mxCell>
        <mxCell id="czVWhgNWtRjSMdm31_TA-23" value="" style="endArrow=classic;html=1;rounded=0;entryX=0;entryY=0.5;entryDx=0;entryDy=0;exitX=1;exitY=0.5;exitDx=0;exitDy=0;" edge="1" parent="1" source="czVWhgNWtRjSMdm31_TA-5" target="czVWhgNWtRjSMdm31_TA-15">
          <mxGeometry width="50" height="50" relative="1" as="geometry">
            <mxPoint x="555" y="150" as="sourcePoint" />
            <mxPoint x="619" y="215" as="targetPoint" />
          </mxGeometry>
        </mxCell>
      </root>
    </mxGraphModel>
  </diagram>
  <diagram name="ATENDIMENTO SOLAR - COMBAMENTO BILLING ÚNICO" id="hKIeIPgXN-jQ7n5Btkvz">
    <mxGraphModel dx="1869" dy="1696" grid="1" gridSize="10" guides="1" tooltips="1" connect="1" arrows="1" fold="1" page="1" pageScale="1" pageWidth="827" pageHeight="1169" math="0" shadow="0">
      <root>
        <mxCell id="VzxSx-TfA9WcNeIA6oIO-0" />
        <mxCell id="VzxSx-TfA9WcNeIA6oIO-1" parent="VzxSx-TfA9WcNeIA6oIO-0" />
        <mxCell id="VzxSx-TfA9WcNeIA6oIO-2" value="SOLAR" style="rounded=1;whiteSpace=wrap;html=1;" parent="VzxSx-TfA9WcNeIA6oIO-1" vertex="1">
          <mxGeometry x="-810" y="-1010" width="120" height="60" as="geometry" />
        </mxCell>
        <mxCell id="VzxSx-TfA9WcNeIA6oIO-3" value="&lt;b&gt;JORNADA ATENDIMENTO&lt;/b&gt;: Combamento oferta móvel (flog nobill = true), descombamento oferta móvel (flag nobill = false)." style="text;html=1;align=left;verticalAlign=middle;whiteSpace=wrap;rounded=0;" parent="VzxSx-TfA9WcNeIA6oIO-1" vertex="1">
          <mxGeometry x="-810" y="-1160" width="680" height="30" as="geometry" />
        </mxCell>
        <mxCell id="VzxSx-TfA9WcNeIA6oIO-4" value="OM" style="rounded=1;whiteSpace=wrap;html=1;verticalAlign=top;" parent="VzxSx-TfA9WcNeIA6oIO-1" vertex="1">
          <mxGeometry x="-650" y="-980" width="120" height="160" as="geometry" />
        </mxCell>
        <mxCell id="VzxSx-TfA9WcNeIA6oIO-5" value="NETSALES" style="shape=cylinder3;whiteSpace=wrap;html=1;boundedLbl=1;backgroundOutline=1;size=15;verticalAlign=top;" parent="VzxSx-TfA9WcNeIA6oIO-1" vertex="1">
          <mxGeometry x="-260" y="-1040" width="220" height="340" as="geometry" />
        </mxCell>
        <mxCell id="VzxSx-TfA9WcNeIA6oIO-6" value="&amp;lt;MS&amp;gt;&lt;br&gt;BASE" style="rounded=1;whiteSpace=wrap;html=1;fillColor=#fff2cc;strokeColor=#d6b656;" parent="VzxSx-TfA9WcNeIA6oIO-1" vertex="1">
          <mxGeometry x="-470" y="-1020" width="176" height="60" as="geometry" />
        </mxCell>
        <mxCell id="VzxSx-TfA9WcNeIA6oIO-7" value="" style="endArrow=classic;html=1;rounded=0;entryX=0;entryY=0.5;entryDx=0;entryDy=0;exitX=1;exitY=0.5;exitDx=0;exitDy=0;" parent="VzxSx-TfA9WcNeIA6oIO-1" source="VzxSx-TfA9WcNeIA6oIO-6" target="VzxSx-TfA9WcNeIA6oIO-11" edge="1">
          <mxGeometry width="50" height="50" relative="1" as="geometry">
            <mxPoint x="-340" y="-890" as="sourcePoint" />
            <mxPoint x="-290" y="-940" as="targetPoint" />
          </mxGeometry>
        </mxCell>
        <mxCell id="VzxSx-TfA9WcNeIA6oIO-8" value="" style="endArrow=classic;html=1;rounded=0;entryX=0;entryY=0.5;entryDx=0;entryDy=0;exitX=1;exitY=0.25;exitDx=0;exitDy=0;" parent="VzxSx-TfA9WcNeIA6oIO-1" source="VzxSx-TfA9WcNeIA6oIO-22" target="VzxSx-TfA9WcNeIA6oIO-6" edge="1">
          <mxGeometry width="50" height="50" relative="1" as="geometry">
            <mxPoint x="-500" y="-900" as="sourcePoint" />
            <mxPoint x="-450" y="-950" as="targetPoint" />
            <Array as="points">
              <mxPoint x="-510" y="-990" />
            </Array>
          </mxGeometry>
        </mxCell>
        <mxCell id="VzxSx-TfA9WcNeIA6oIO-9" value="" style="endArrow=classic;html=1;rounded=0;entryX=0.5;entryY=0;entryDx=0;entryDy=0;exitX=1;exitY=0.5;exitDx=0;exitDy=0;" parent="VzxSx-TfA9WcNeIA6oIO-1" source="VzxSx-TfA9WcNeIA6oIO-2" target="VzxSx-TfA9WcNeIA6oIO-22" edge="1">
          <mxGeometry width="50" height="50" relative="1" as="geometry">
            <mxPoint x="-780" y="-800" as="sourcePoint" />
            <mxPoint x="-730" y="-850" as="targetPoint" />
          </mxGeometry>
        </mxCell>
        <mxCell id="VzxSx-TfA9WcNeIA6oIO-10" value="CONTRATO" style="swimlane;fontStyle=0;childLayout=stackLayout;horizontal=1;startSize=30;horizontalStack=0;resizeParent=1;resizeParentMax=0;resizeLast=0;collapsible=1;marginBottom=0;whiteSpace=wrap;html=1;" parent="VzxSx-TfA9WcNeIA6oIO-1" vertex="1">
          <mxGeometry x="-230" y="-970" width="140" height="90" as="geometry" />
        </mxCell>
        <mxCell id="VzxSx-TfA9WcNeIA6oIO-11" value="NUM CONTRATO" style="text;strokeColor=none;fillColor=none;align=left;verticalAlign=middle;spacingLeft=4;spacingRight=4;overflow=hidden;points=[[0,0.5],[1,0.5]];portConstraint=eastwest;rotatable=0;whiteSpace=wrap;html=1;" parent="VzxSx-TfA9WcNeIA6oIO-10" vertex="1">
          <mxGeometry y="30" width="140" height="30" as="geometry" />
        </mxCell>
        <mxCell id="VzxSx-TfA9WcNeIA6oIO-12" value="FLAG NOBILL = TRUE/FALSE" style="text;strokeColor=none;fillColor=none;align=left;verticalAlign=middle;spacingLeft=4;spacingRight=4;overflow=hidden;points=[[0,0.5],[1,0.5]];portConstraint=eastwest;rotatable=0;whiteSpace=wrap;html=1;" parent="VzxSx-TfA9WcNeIA6oIO-10" vertex="1">
          <mxGeometry y="60" width="140" height="30" as="geometry" />
        </mxCell>
        <mxCell id="VzxSx-TfA9WcNeIA6oIO-13" value="MOBILE" style="rounded=1;whiteSpace=wrap;html=1;" parent="VzxSx-TfA9WcNeIA6oIO-1" vertex="1">
          <mxGeometry x="-810" y="-860" width="120" height="60" as="geometry" />
        </mxCell>
        <mxCell id="VzxSx-TfA9WcNeIA6oIO-14" value="" style="endArrow=classic;html=1;rounded=0;entryX=0.5;entryY=0;entryDx=0;entryDy=0;exitX=0.514;exitY=1;exitDx=0;exitDy=0;exitPerimeter=0;" parent="VzxSx-TfA9WcNeIA6oIO-1" source="VzxSx-TfA9WcNeIA6oIO-12" target="VzxSx-TfA9WcNeIA6oIO-16" edge="1">
          <mxGeometry width="50" height="50" relative="1" as="geometry">
            <mxPoint x="-360" y="-760" as="sourcePoint" />
            <mxPoint x="-310" y="-810" as="targetPoint" />
          </mxGeometry>
        </mxCell>
        <mxCell id="VzxSx-TfA9WcNeIA6oIO-15" value="" style="endArrow=classic;html=1;rounded=0;entryX=1;entryY=0.5;entryDx=0;entryDy=0;exitX=0;exitY=0.5;exitDx=0;exitDy=0;" parent="VzxSx-TfA9WcNeIA6oIO-1" source="VzxSx-TfA9WcNeIA6oIO-23" target="VzxSx-TfA9WcNeIA6oIO-13" edge="1">
          <mxGeometry width="50" height="50" relative="1" as="geometry">
            <mxPoint x="-470" y="-713.5" as="sourcePoint" />
            <mxPoint x="-410" y="-730" as="targetPoint" />
          </mxGeometry>
        </mxCell>
        <mxCell id="VzxSx-TfA9WcNeIA6oIO-16" value="SOLIC" style="swimlane;fontStyle=0;childLayout=stackLayout;horizontal=1;startSize=30;horizontalStack=0;resizeParent=1;resizeParentMax=0;resizeLast=0;collapsible=1;marginBottom=0;whiteSpace=wrap;html=1;" parent="VzxSx-TfA9WcNeIA6oIO-1" vertex="1">
          <mxGeometry x="-210" y="-850" width="140" height="60" as="geometry" />
        </mxCell>
        <mxCell id="VzxSx-TfA9WcNeIA6oIO-17" value="OS" style="swimlane;fontStyle=0;childLayout=stackLayout;horizontal=1;startSize=30;horizontalStack=0;resizeParent=1;resizeParentMax=0;resizeLast=0;collapsible=1;marginBottom=0;whiteSpace=wrap;html=1;" parent="VzxSx-TfA9WcNeIA6oIO-1" vertex="1">
          <mxGeometry x="-190" y="-770" width="140" height="60" as="geometry" />
        </mxCell>
        <mxCell id="VzxSx-TfA9WcNeIA6oIO-18" value="" style="endArrow=classic;html=1;rounded=0;entryX=0.5;entryY=0;entryDx=0;entryDy=0;exitX=0.5;exitY=1;exitDx=0;exitDy=0;" parent="VzxSx-TfA9WcNeIA6oIO-1" source="VzxSx-TfA9WcNeIA6oIO-16" target="VzxSx-TfA9WcNeIA6oIO-17" edge="1">
          <mxGeometry width="50" height="50" relative="1" as="geometry">
            <mxPoint x="-100" y="-840" as="sourcePoint" />
            <mxPoint x="-82" y="-810" as="targetPoint" />
          </mxGeometry>
        </mxCell>
        <mxCell id="VzxSx-TfA9WcNeIA6oIO-19" value="" style="endArrow=classic;html=1;rounded=0;exitX=0;exitY=0.5;exitDx=0;exitDy=0;entryX=1;entryY=0.5;entryDx=0;entryDy=0;" parent="VzxSx-TfA9WcNeIA6oIO-1" source="VzxSx-TfA9WcNeIA6oIO-17" target="VzxSx-TfA9WcNeIA6oIO-21" edge="1">
          <mxGeometry width="50" height="50" relative="1" as="geometry">
            <mxPoint x="-220" y="-620" as="sourcePoint" />
            <mxPoint x="-170" y="-670" as="targetPoint" />
          </mxGeometry>
        </mxCell>
        <mxCell id="VzxSx-TfA9WcNeIA6oIO-20" value="Se FLAGNOBILL foi alterada, avisa OM para calcular PRORATA do cliente" style="text;html=1;align=center;verticalAlign=middle;whiteSpace=wrap;rounded=0;" parent="VzxSx-TfA9WcNeIA6oIO-1" vertex="1">
          <mxGeometry x="-430" y="-787" width="160" height="67" as="geometry" />
        </mxCell>
        <mxCell id="VzxSx-TfA9WcNeIA6oIO-21" value="&amp;lt;MS&amp;gt;&lt;br&gt;CALLBACK SOLAR" style="rounded=1;whiteSpace=wrap;html=1;fillColor=#f8cecc;strokeColor=#b85450;" parent="VzxSx-TfA9WcNeIA6oIO-1" vertex="1">
          <mxGeometry x="-500" y="-860" width="120" height="60" as="geometry" />
        </mxCell>
        <mxCell id="VzxSx-TfA9WcNeIA6oIO-22" value="ASSINANTE" style="rounded=0;whiteSpace=wrap;html=1;" parent="VzxSx-TfA9WcNeIA6oIO-1" vertex="1">
          <mxGeometry x="-635" y="-940" width="90" height="40" as="geometry" />
        </mxCell>
        <mxCell id="VzxSx-TfA9WcNeIA6oIO-23" value="CONTRATO MOBILE" style="rounded=0;whiteSpace=wrap;html=1;" parent="VzxSx-TfA9WcNeIA6oIO-1" vertex="1">
          <mxGeometry x="-635" y="-880" width="90" height="40" as="geometry" />
        </mxCell>
        <mxCell id="VzxSx-TfA9WcNeIA6oIO-24" value="" style="endArrow=classic;html=1;rounded=0;entryX=1;entryY=0.5;entryDx=0;entryDy=0;exitX=0;exitY=0.5;exitDx=0;exitDy=0;fillColor=#f8cecc;strokeColor=#b85450;strokeWidth=3;" parent="VzxSx-TfA9WcNeIA6oIO-1" source="VzxSx-TfA9WcNeIA6oIO-21" target="VzxSx-TfA9WcNeIA6oIO-23" edge="1">
          <mxGeometry width="50" height="50" relative="1" as="geometry">
            <mxPoint x="-590" y="-780" as="sourcePoint" />
            <mxPoint x="-540" y="-830" as="targetPoint" />
          </mxGeometry>
        </mxCell>
        <mxCell id="VzxSx-TfA9WcNeIA6oIO-25" value="" style="endArrow=classic;html=1;rounded=0;exitX=1;exitY=0.25;exitDx=0;exitDy=0;entryX=0;entryY=0.5;entryDx=0;entryDy=0;fillColor=#f8cecc;strokeColor=#b85450;strokeWidth=3;" parent="VzxSx-TfA9WcNeIA6oIO-1" source="VzxSx-TfA9WcNeIA6oIO-21" target="VzxSx-TfA9WcNeIA6oIO-12" edge="1">
          <mxGeometry width="50" height="50" relative="1" as="geometry">
            <mxPoint x="-50" y="-700" as="sourcePoint" />
            <mxPoint x="-240" y="-790" as="targetPoint" />
          </mxGeometry>
        </mxCell>
        <mxCell id="VzxSx-TfA9WcNeIA6oIO-26" value="Altera FLAG quando produto for instalado" style="text;html=1;align=center;verticalAlign=middle;whiteSpace=wrap;rounded=0;" parent="VzxSx-TfA9WcNeIA6oIO-1" vertex="1">
          <mxGeometry x="-406" y="-917" width="136" height="37" as="geometry" />
        </mxCell>
        <mxCell id="VzxSx-TfA9WcNeIA6oIO-27" value="Receber valores dos produtos atualizados - valor assinante ajustado" style="text;html=1;align=center;verticalAlign=middle;whiteSpace=wrap;rounded=0;" parent="VzxSx-TfA9WcNeIA6oIO-1" vertex="1">
          <mxGeometry x="-560" y="-1080" width="136" height="37" as="geometry" />
        </mxCell>
        <mxCell id="VzxSx-TfA9WcNeIA6oIO-28" value="" style="endArrow=none;dashed=1;html=1;dashPattern=1 3;strokeWidth=2;rounded=0;entryX=0.446;entryY=1.009;entryDx=0;entryDy=0;entryPerimeter=0;" parent="VzxSx-TfA9WcNeIA6oIO-1" target="VzxSx-TfA9WcNeIA6oIO-27" edge="1">
          <mxGeometry width="50" height="50" relative="1" as="geometry">
            <mxPoint x="-510" y="-990" as="sourcePoint" />
            <mxPoint x="-320" y="-1070" as="targetPoint" />
          </mxGeometry>
        </mxCell>
      </root>
    </mxGraphModel>
  </diagram>
  <diagram name="ATENDIMENTO NÃO SOLAR" id="dYWgf8eIWl9QRjmXVpac">
    <mxGraphModel dx="1869" dy="1696" grid="1" gridSize="10" guides="1" tooltips="1" connect="1" arrows="1" fold="1" page="1" pageScale="1" pageWidth="827" pageHeight="1169" math="0" shadow="0">
      <root>
        <mxCell id="HXEqibgm7okS9RC-e6FL-0" />
        <mxCell id="HXEqibgm7okS9RC-e6FL-1" parent="HXEqibgm7okS9RC-e6FL-0" />
        <mxCell id="HXEqibgm7okS9RC-e6FL-2" value="Atendimento Não Solar" style="rounded=1;whiteSpace=wrap;html=1;" vertex="1" parent="HXEqibgm7okS9RC-e6FL-1">
          <mxGeometry x="-800" y="-1010" width="120" height="60" as="geometry" />
        </mxCell>
        <mxCell id="HXEqibgm7okS9RC-e6FL-3" value="&lt;b&gt;JORNADA ATENDIMENTO&lt;/b&gt;: Fora do Solar, exemplos:&amp;nbsp;&lt;div&gt;- eventos relacionados a troca de recursos (Número de Telefone Fixo)&lt;/div&gt;&lt;div&gt;- trocas de planos decorrentes de ordens de serviço concluídas geradas por outros canais que não o Solar (SPS Ebt, Setup Box, Canais Digitais)&lt;/div&gt;" style="text;html=1;align=left;verticalAlign=middle;whiteSpace=wrap;rounded=0;" vertex="1" parent="HXEqibgm7okS9RC-e6FL-1">
          <mxGeometry x="-810" y="-1160" width="810" height="50" as="geometry" />
        </mxCell>
        <mxCell id="HXEqibgm7okS9RC-e6FL-5" value="NETSALES" style="shape=cylinder3;whiteSpace=wrap;html=1;boundedLbl=1;backgroundOutline=1;size=15;verticalAlign=top;" vertex="1" parent="HXEqibgm7okS9RC-e6FL-1">
          <mxGeometry x="-260" y="-1040" width="220" height="340" as="geometry" />
        </mxCell>
        <mxCell id="HXEqibgm7okS9RC-e6FL-6" value="&amp;lt;MS&amp;gt;&lt;br&gt;ABERTURA SOLIC" style="rounded=1;whiteSpace=wrap;html=1;fillColor=#fff2cc;strokeColor=#d6b656;" vertex="1" parent="HXEqibgm7okS9RC-e6FL-1">
          <mxGeometry x="-470" y="-1020" width="176" height="60" as="geometry" />
        </mxCell>
        <mxCell id="HXEqibgm7okS9RC-e6FL-7" value="" style="endArrow=classic;html=1;rounded=0;entryX=0;entryY=0.5;entryDx=0;entryDy=0;exitX=1;exitY=0.5;exitDx=0;exitDy=0;" edge="1" parent="HXEqibgm7okS9RC-e6FL-1" source="HXEqibgm7okS9RC-e6FL-6" target="HXEqibgm7okS9RC-e6FL-11">
          <mxGeometry width="50" height="50" relative="1" as="geometry">
            <mxPoint x="-340" y="-890" as="sourcePoint" />
            <mxPoint x="-290" y="-940" as="targetPoint" />
          </mxGeometry>
        </mxCell>
        <mxCell id="HXEqibgm7okS9RC-e6FL-8" value="" style="endArrow=classic;html=1;rounded=0;entryX=0;entryY=0.5;entryDx=0;entryDy=0;exitX=1;exitY=0.25;exitDx=0;exitDy=0;" edge="1" parent="HXEqibgm7okS9RC-e6FL-1" source="HXEqibgm7okS9RC-e6FL-22" target="HXEqibgm7okS9RC-e6FL-6">
          <mxGeometry width="50" height="50" relative="1" as="geometry">
            <mxPoint x="-500" y="-900" as="sourcePoint" />
            <mxPoint x="-450" y="-950" as="targetPoint" />
            <Array as="points">
              <mxPoint x="-510" y="-990" />
            </Array>
          </mxGeometry>
        </mxCell>
        <mxCell id="HXEqibgm7okS9RC-e6FL-9" value="" style="endArrow=classic;html=1;rounded=0;entryX=0.5;entryY=0;entryDx=0;entryDy=0;exitX=1;exitY=0.5;exitDx=0;exitDy=0;" edge="1" parent="HXEqibgm7okS9RC-e6FL-1" source="HXEqibgm7okS9RC-e6FL-2" target="HXEqibgm7okS9RC-e6FL-22">
          <mxGeometry width="50" height="50" relative="1" as="geometry">
            <mxPoint x="-780" y="-800" as="sourcePoint" />
            <mxPoint x="-730" y="-850" as="targetPoint" />
          </mxGeometry>
        </mxCell>
        <mxCell id="HXEqibgm7okS9RC-e6FL-10" value="CONTRATO" style="swimlane;fontStyle=0;childLayout=stackLayout;horizontal=1;startSize=30;horizontalStack=0;resizeParent=1;resizeParentMax=0;resizeLast=0;collapsible=1;marginBottom=0;whiteSpace=wrap;html=1;" vertex="1" parent="HXEqibgm7okS9RC-e6FL-1">
          <mxGeometry x="-230" y="-970" width="140" height="90" as="geometry" />
        </mxCell>
        <mxCell id="HXEqibgm7okS9RC-e6FL-11" value="NUM CONTRATO" style="text;strokeColor=none;fillColor=none;align=left;verticalAlign=middle;spacingLeft=4;spacingRight=4;overflow=hidden;points=[[0,0.5],[1,0.5]];portConstraint=eastwest;rotatable=0;whiteSpace=wrap;html=1;" vertex="1" parent="HXEqibgm7okS9RC-e6FL-10">
          <mxGeometry y="30" width="140" height="30" as="geometry" />
        </mxCell>
        <mxCell id="HXEqibgm7okS9RC-e6FL-12" value="FLAG NOBILL = TRUE/FALSE" style="text;strokeColor=none;fillColor=none;align=left;verticalAlign=middle;spacingLeft=4;spacingRight=4;overflow=hidden;points=[[0,0.5],[1,0.5]];portConstraint=eastwest;rotatable=0;whiteSpace=wrap;html=1;" vertex="1" parent="HXEqibgm7okS9RC-e6FL-10">
          <mxGeometry y="60" width="140" height="30" as="geometry" />
        </mxCell>
        <mxCell id="HXEqibgm7okS9RC-e6FL-13" value="MOBILE" style="rounded=1;whiteSpace=wrap;html=1;" vertex="1" parent="HXEqibgm7okS9RC-e6FL-1">
          <mxGeometry x="-810" y="-860" width="120" height="60" as="geometry" />
        </mxCell>
        <mxCell id="HXEqibgm7okS9RC-e6FL-14" value="" style="endArrow=classic;html=1;rounded=0;entryX=0.5;entryY=0;entryDx=0;entryDy=0;exitX=0.514;exitY=1;exitDx=0;exitDy=0;exitPerimeter=0;" edge="1" parent="HXEqibgm7okS9RC-e6FL-1" source="HXEqibgm7okS9RC-e6FL-12" target="HXEqibgm7okS9RC-e6FL-16">
          <mxGeometry width="50" height="50" relative="1" as="geometry">
            <mxPoint x="-360" y="-760" as="sourcePoint" />
            <mxPoint x="-310" y="-810" as="targetPoint" />
          </mxGeometry>
        </mxCell>
        <mxCell id="HXEqibgm7okS9RC-e6FL-15" value="" style="endArrow=classic;html=1;rounded=0;entryX=1;entryY=0.5;entryDx=0;entryDy=0;exitX=0;exitY=0.5;exitDx=0;exitDy=0;" edge="1" parent="HXEqibgm7okS9RC-e6FL-1" source="HXEqibgm7okS9RC-e6FL-23" target="HXEqibgm7okS9RC-e6FL-13">
          <mxGeometry width="50" height="50" relative="1" as="geometry">
            <mxPoint x="-470" y="-713.5" as="sourcePoint" />
            <mxPoint x="-410" y="-730" as="targetPoint" />
          </mxGeometry>
        </mxCell>
        <mxCell id="HXEqibgm7okS9RC-e6FL-16" value="SOLIC" style="swimlane;fontStyle=0;childLayout=stackLayout;horizontal=1;startSize=30;horizontalStack=0;resizeParent=1;resizeParentMax=0;resizeLast=0;collapsible=1;marginBottom=0;whiteSpace=wrap;html=1;" vertex="1" parent="HXEqibgm7okS9RC-e6FL-1">
          <mxGeometry x="-210" y="-850" width="140" height="60" as="geometry" />
        </mxCell>
        <mxCell id="HXEqibgm7okS9RC-e6FL-17" value="OS" style="swimlane;fontStyle=0;childLayout=stackLayout;horizontal=1;startSize=30;horizontalStack=0;resizeParent=1;resizeParentMax=0;resizeLast=0;collapsible=1;marginBottom=0;whiteSpace=wrap;html=1;" vertex="1" parent="HXEqibgm7okS9RC-e6FL-1">
          <mxGeometry x="-190" y="-770" width="140" height="60" as="geometry" />
        </mxCell>
        <mxCell id="HXEqibgm7okS9RC-e6FL-18" value="" style="endArrow=classic;html=1;rounded=0;entryX=0.5;entryY=0;entryDx=0;entryDy=0;exitX=0.5;exitY=1;exitDx=0;exitDy=0;" edge="1" parent="HXEqibgm7okS9RC-e6FL-1" source="HXEqibgm7okS9RC-e6FL-16" target="HXEqibgm7okS9RC-e6FL-17">
          <mxGeometry width="50" height="50" relative="1" as="geometry">
            <mxPoint x="-100" y="-840" as="sourcePoint" />
            <mxPoint x="-82" y="-810" as="targetPoint" />
          </mxGeometry>
        </mxCell>
        <mxCell id="HXEqibgm7okS9RC-e6FL-19" value="" style="endArrow=classic;html=1;rounded=0;exitX=0;exitY=0.5;exitDx=0;exitDy=0;entryX=1;entryY=0.5;entryDx=0;entryDy=0;" edge="1" parent="HXEqibgm7okS9RC-e6FL-1" source="HXEqibgm7okS9RC-e6FL-17" target="HXEqibgm7okS9RC-e6FL-21">
          <mxGeometry width="50" height="50" relative="1" as="geometry">
            <mxPoint x="-220" y="-620" as="sourcePoint" />
            <mxPoint x="-170" y="-670" as="targetPoint" />
          </mxGeometry>
        </mxCell>
        <mxCell id="4bMGPV7ORLuDebYWhegd-0" value="QUANDO NOBILL = TRUE" style="edgeLabel;html=1;align=center;verticalAlign=middle;resizable=0;points=[];" vertex="1" connectable="0" parent="HXEqibgm7okS9RC-e6FL-19">
          <mxGeometry x="0.1107" relative="1" as="geometry">
            <mxPoint x="-64" y="10" as="offset" />
          </mxGeometry>
        </mxCell>
        <mxCell id="HXEqibgm7okS9RC-e6FL-21" value="&amp;lt;MS&amp;gt;&lt;br&gt;CALLBACK MOBILE" style="rounded=1;whiteSpace=wrap;html=1;fillColor=#f8cecc;strokeColor=#b85450;" vertex="1" parent="HXEqibgm7okS9RC-e6FL-1">
          <mxGeometry x="-500" y="-860" width="120" height="60" as="geometry" />
        </mxCell>
        <mxCell id="HXEqibgm7okS9RC-e6FL-22" value="APIGEE" style="rounded=0;whiteSpace=wrap;html=1;" vertex="1" parent="HXEqibgm7okS9RC-e6FL-1">
          <mxGeometry x="-635" y="-940" width="90" height="40" as="geometry" />
        </mxCell>
        <mxCell id="HXEqibgm7okS9RC-e6FL-23" value="API CALLBACK MOVEL" style="rounded=0;whiteSpace=wrap;html=1;" vertex="1" parent="HXEqibgm7okS9RC-e6FL-1">
          <mxGeometry x="-635" y="-880" width="90" height="40" as="geometry" />
        </mxCell>
        <mxCell id="HXEqibgm7okS9RC-e6FL-24" value="" style="endArrow=classic;html=1;rounded=0;entryX=1;entryY=0.5;entryDx=0;entryDy=0;exitX=0;exitY=0.5;exitDx=0;exitDy=0;fillColor=#f8cecc;strokeColor=#b85450;strokeWidth=3;" edge="1" parent="HXEqibgm7okS9RC-e6FL-1" source="HXEqibgm7okS9RC-e6FL-21" target="HXEqibgm7okS9RC-e6FL-23">
          <mxGeometry width="50" height="50" relative="1" as="geometry">
            <mxPoint x="-590" y="-780" as="sourcePoint" />
            <mxPoint x="-540" y="-830" as="targetPoint" />
          </mxGeometry>
        </mxCell>
      </root>
    </mxGraphModel>
  </diagram>
</mxfile>
